<svg width="1200" height="471" xmlns="http://www.w3.org/2000/svg">

 <g>
  <title>background</title>
  <rect fill="none" id="canvas_background" height="402" width="582" y="-1" x="-1"/>
 </g>
 <g>
  <title>Layer 1</title>
  <g id="#064022ff">
   <path id="svg_1" d="m0,0l0.27,0c-0.07,0.07 -0.2,0.22 -0.27,0.3l0,-0.3z" fill="#064022"/>
   <path id="svg_2" d="m893.11,56.39c5.67,-0.76 11.28,-1.92 16.93,-2.85c5.58,-0.88 10.95,1.27 16.37,2.23c-0.42,0.04 -1.25,0.11 -1.66,0.15c-5.13,-0.89 -10.31,-3.01 -15.54,-1.74c-4.93,1.03 -9.9,1.78 -14.87,2.54c2.71,1.39 5.76,1.85 8.72,2.41c0.18,0.58 0.53,1.76 0.71,2.35c-4.69,-0.8 -9.31,-1.92 -13.96,-2.91c-3.97,0.83 -7.78,2.28 -11.7,3.31c-3.11,-0.38 -6.23,-0.28 -9.24,0.58c0.14,0.53 0.43,1.59 0.57,2.12l-0.57,-0.39c-5.32,4.19 -10.53,8.51 -15.69,12.88c-1.09,0.62 -2.23,1.17 -3.33,1.75c-0.19,0.46 -0.57,1.4 -0.76,1.86c-1.28,1.12 -2.61,2.18 -3.92,3.25c-3.27,2.85 -4.78,7.07 -6.86,10.76c-1.02,2.11 -2.04,4.23 -2.82,6.44c-2.95,10.15 -5.15,20.52 -8.24,30.62c-3.23,5.06 -4.43,11.04 -3.53,16.98c-0.8,0.48 -1.21,1.18 -1.21,2.09c-0.72,5.1 -1.12,10.23 -1.77,15.34c0.48,7.95 1.22,15.92 1.5,23.89c-0.63,0.03 -1.91,0.1 -2.55,0.14c0.27,-10.37 -2.34,-20.77 -0.34,-31.09c-0.21,-4.14 0.1,-8.29 1.66,-12.19c4.24,-15.22 8.02,-30.57 12.2,-45.8c1.88,-5.47 5.13,-10.37 6.8,-15.91c1.55,-1.37 3.11,-2.72 4.78,-3.95c7.82,-5.87 15.08,-12.46 22.74,-18.53c6.05,-2.16 12.37,-3.49 18.49,-5.49c2.25,-0.92 4.7,-0.69 7.09,-0.84z" fill="#064022"/>
   <path id="svg_3" d="m885.22,85.5c0.66,0.73 1.29,1.51 1.92,2.29c-3.27,1.35 -6.54,2.7 -9.78,4.12c-0.68,-0.53 -1.38,-1.03 -2.04,-1.56c2.11,0.3 3.94,-1.1 5.87,-1.75c1.37,-0.79 3.44,-0.86 4.18,-2.47l-0.15,-0.63z" fill="#064022"/>
   <path id="svg_4" d="m927.96,85.74c1.55,0.7 3.15,1.27 4.76,1.85l0.69,0.25c-0.79,0.02 -2.36,0.07 -3.15,0.1c-0.31,-0.27 -0.95,-0.8 -1.26,-1.06c-1.59,-0.01 -3.16,-0.02 -4.73,-0.03l-0.23,0.72c-3.48,0.22 -6.96,0 -10.43,-0.01c-0.21,-0.33 -0.63,-0.98 -0.83,-1.31c5.05,-0.42 10.25,0.93 15.18,-0.51z" fill="#064022"/>
   <path id="svg_5" d="m941.91,86.16l0.43,0.62c0.7,1.09 1.4,2.19 2.2,3.23c-1.83,-0.88 -3.72,-1.67 -5.66,-2.23l0.49,-0.11c1.4,0.27 2.25,-0.23 2.54,-1.51z" fill="#064022"/>
   <path id="svg_6" d="m955.33,94.96c0.32,-0.06 0.98,-0.18 1.31,-0.25c0.94,0.25 3.43,2.03 1.42,2.67c-0.6,-0.23 -1.82,-0.68 -2.43,-0.91c-0.08,-0.37 -0.23,-1.13 -0.3,-1.51z" fill="#064022"/>
   <path id="svg_7" d="m971.74,95.69c4.36,1.75 6.02,6.42 8.51,10.01c3.77,6.43 8.51,12.2 12.89,18.22l-0.68,0.45c-3.53,-3.16 -5.7,-7.48 -8.74,-11.06c-3.36,-3.83 -5.95,-8.22 -8.53,-12.59c-1.03,-1.76 -2.29,-3.37 -3.45,-5.03z" fill="#064022"/>
   <path id="svg_8" d="m849.53,101.9c2.8,-1.29 5.17,-3.26 7.47,-5.29c-0.44,0.82 -1.32,2.46 -1.76,3.28c1.27,-0.64 2.55,-1.27 3.85,-1.88c0.35,0.24 1.04,0.73 1.38,0.97c-3.56,2.02 -7.36,3.62 -10.66,6.05c-0.05,-0.19 -0.16,-0.58 -0.21,-0.77c-0.02,-0.59 -0.06,-1.77 -0.07,-2.36z" fill="#064022"/>
   <path id="svg_9" d="m906.37,111.6l0.14,-1.1c0.88,0.91 1.9,1.87 2.03,3.23c-0.49,0.2 -1.47,0.6 -1.95,0.8l-0.12,0.21c-0.13,-1.05 -0.16,-2.1 -0.1,-3.14z" fill="#064022"/>
   <path id="svg_10" d="m928.15,112.84l0.68,-0.27c1.25,0.79 1.87,2.17 1.97,3.62c-0.26,0.18 -0.8,0.53 -1.07,0.71c-1.06,-1.1 -1.75,-2.5 -1.58,-4.06z" fill="#064022"/>
   <path id="svg_11" d="m884.6,116.56c1.31,-0.64 2.64,-1.26 3.98,-1.88c0.25,0.52 0.75,1.58 1,2.1c-4.25,1.89 -8.68,3.34 -12.83,5.44c-0.31,-0.4 -0.94,-1.19 -1.25,-1.59c2.07,-1.13 4.26,-2 6.46,-2.87c0.87,-0.38 1.76,-0.78 2.64,-1.2z" fill="#064022"/>
   <path id="svg_12" d="m962.58,120.86c1.82,0.52 3.65,1.09 5.47,1.68c0.76,1.18 1.64,2.29 2.59,3.34c-2.58,-0.78 -5.1,-1.72 -7.61,-2.67c-0.11,-0.59 -0.34,-1.77 -0.45,-2.35z" fill="#064022"/>
   <path id="svg_13" d="m876.81,123.5c2.19,-0.62 4.42,0.44 6.1,1.81c-1.86,0.26 -3.68,-0.47 -5.49,-0.71l-0.59,-0.55l-0.02,-0.55z" fill="#064022"/>
   <path id="svg_14" d="m882.91,125.31c3.14,0.68 6.27,1.46 9.31,2.55c-3.17,-0.58 -6.34,-1.29 -9.31,-2.55z" fill="#064022"/>
   <path id="svg_15" d="m892.22,127.86c0.62,0.23 1.85,0.69 2.47,0.92l-0.06,0.73c-1.46,0.41 -2.26,-0.14 -2.41,-1.65z" fill="#064022"/>
   <path id="svg_16" d="m858.16,134.67c1.36,-1.26 2.64,-2.61 3.98,-3.9c0.33,0.55 1,1.65 1.33,2.2c-0.97,0.28 -1.74,0.84 -2.29,1.67c-0.76,0.01 -2.26,0.03 -3.02,0.03z" fill="#064022"/>
   <path id="svg_17" d="m856.17,135.98l0.67,-0.43c1.34,0.64 1.27,2.37 0.45,3.39l-0.9,0.02c-0.06,-0.75 -0.17,-2.24 -0.22,-2.98z" fill="#064022"/>
   <path id="svg_18" d="m923.24,136.54c0.75,0.24 2.25,0.7 3,0.94l0.1,0.39c-0.5,0 -1.5,0.01 -2,0.01c-0.28,-0.33 -0.83,-1 -1.1,-1.34z" fill="#064022"/>
   <path id="svg_19" d="m1000.57,138.54c0.48,0.07 1.43,0.2 1.91,0.26c0.61,1.51 1.24,3.02 2,4.47c-1.04,-0.61 -2.08,-1.19 -3.11,-1.75c-0.25,-1 -0.52,-1.99 -0.8,-2.98z" fill="#064022"/>
   <path id="svg_20" d="m940.14,141.32c4.6,1.74 9.49,2.61 14.05,4.46c0.09,0.21 0.27,0.62 0.36,0.82l-0.8,-0.31c-4.16,-2.04 -8.79,-2.75 -13.17,-4.11c-0.11,-0.21 -0.33,-0.64 -0.44,-0.86z" fill="#064022"/>
   <path id="svg_21" d="m844.59,152.42c1.75,-0.69 3.21,0.79 3.73,2.36l0.11,1.21c-1.56,-0.65 -3.14,-1.24 -4.7,-1.84l0.26,-0.48l0.6,-1.25z" fill="#064022"/>
   <path id="svg_22" d="m1019.31,156.56c0.27,-0.46 0.79,-1.39 1.06,-1.86c-0.6,4.77 5.88,6.61 6.55,11.19c-0.5,-0.08 -1.5,-0.26 -2.01,-0.35c-1.03,-1 -2.07,-1.98 -3.08,-2.98c-0.8,-2.02 -1.58,-4.05 -2.52,-6z" fill="#064022"/>
  </g>
  <g id="#008f47ff">
   <path id="svg_85" d="m840.01,85.2c0.54,-18.34 1.53,-36.64 2.02,-54.98c1.3,16.98 1.86,34.01 2.76,51.03c-1.67,1.23 -3.23,2.58 -4.78,3.95z" fill="#008f47"/>
   <path id="svg_86" d="m807.42,83.98c1.42,14.67 3.28,29.29 5.03,43.92c1.99,16.41 3.55,32.87 6.09,49.2c0.31,3.95 1.13,7.88 0.81,11.85c1.73,9.43 2.19,19.06 3.85,28.51c0.25,1.51 0.72,2.99 1.46,4.35c-1.11,5.68 0.28,11.4 0.87,17.06c1.82,15.42 3.65,30.85 5.43,46.28c0.39,1.05 -0.5,3.09 0.95,3.5c-1.36,-3.5 0.18,-7.11 0.23,-10.67c1.17,-30.71 2.67,-61.37 3.55,-92.08c0.61,-2.43 1.25,-4.85 1.88,-7.28c1.26,0.06 2.54,0.11 3.83,0.18c0.41,-2.65 0.85,-5.29 1.19,-7.95l0.39,0.58c1.6,3.86 3.9,7.36 6.27,10.79c1.75,17.86 1.72,35.87 3.02,53.77c0.88,23.27 2.2,46.52 3.3,69.79c0.23,0.02 0.7,0.06 0.93,0.08c7.04,-34.56 13.73,-69.19 20.96,-103.71c0.48,1.04 0.98,2.07 1.49,3.1c1.05,1.26 2.09,2.57 2.69,4.13c-4.65,47.17 -8.67,94.37 -13.13,141.55c-0.24,4.86 -1.35,9.67 -1.03,14.56c-7.77,1.08 -15.64,0.91 -23.46,0.74c-11.4,0.44 -22.81,-0.01 -34.21,0.06c-7.04,-42.5 -14.95,-84.88 -22.31,-127.34c-6.7,-38.35 -13.71,-76.66 -20.23,-115.04c0.85,1.87 1.24,3.89 1.86,5.85c12.24,40.77 24.64,81.49 36.89,122.26c0.75,2.37 1.24,4.87 2.55,7.03c0.08,-25.36 0.06,-50.74 -0.72,-76.09c-0.01,-23.67 -0.2,-47.35 -0.68,-71.02c0.06,-9.32 -0.36,-18.65 0.25,-27.96z" fill="#008f47"/>
   <path id="svg_87" d="m838.31,94.69c2.08,-3.69 3.59,-7.91 6.86,-10.76c0.1,7.01 0.4,14.01 0.54,21.02l1.23,-0.24c-2.08,3.61 -5.01,7.06 -5.32,11.38c-0.07,0.18 -0.21,0.55 -0.28,0.73c-1.98,10.47 -3.42,21.63 0.36,31.89l0.16,0.34c1.23,0.84 2.33,1.87 2.73,3.37l-0.6,1.25c-0.65,0.08 -1.95,0.23 -2.6,0.3c-0.19,-1.31 -0.76,-2.52 -1.13,-3.77c-0.78,-4.33 -0.95,-8.84 -2.69,-12.93c1.91,-7 1.1,-14.37 0.98,-21.54l0.09,-0.08c-0.17,-0.82 -0.36,-1.64 -0.47,-2.46c1.79,-6.22 0.68,-12.79 1.38,-19.16l-1.24,0.66z" fill="#008f47"/>
  </g>
  <g id="#231f20ff">
   <path id="svg_134" d="m831.3,128.92c1.25,-5.62 3.42,-11.09 6.87,-15.73c0.11,0.82 0.3,1.64 0.47,2.46l-0.09,0.08c-3.71,3.48 -4.8,8.81 -6,13.56c-0.32,-0.09 -0.94,-0.28 -1.25,-0.37z" fill="#231f20"/>
  </g>
  <g id="#86868686">
   <path id="svg_165" d="m417.71,44.71c2.56,-0.02 5.2,0.02 7.53,-1.23c-1.45,3.53 -6.36,0.04 -7.7,3.17l-0.51,-0.1c0.17,-0.46 0.51,-1.38 0.68,-1.84z" opacity="0.53" fill="#868686"/>
  </g>
  <g id="#ba9657ff">
   <path id="svg_166" d="m926.41,55.77c2.86,-0.36 5.76,-0.22 8.61,0.27c2.71,1.04 4.28,3.77 6.85,5.09c0.13,-0.63 0.4,-1.89 0.53,-2.51l0.71,0.03c0.28,0.59 0.83,1.77 1.1,2.36c-1.64,0.43 -2.09,1.43 -1.36,3.01c-2.47,-1.99 -4.45,-5.06 -7.84,-5.43c-1.35,-0.3 -2.7,-0.53 -4.03,-0.78c0.47,3.46 0.13,6.93 0.2,10.4c-0.65,-0.08 -1.94,-0.23 -2.58,-0.31c-0.21,-0.36 -0.63,-1.08 -0.83,-1.44l2.01,0.27c-1.01,-3.23 -1.14,-6.6 -1.13,-9.95c-1.31,-0.28 -2.62,-0.57 -3.9,-0.86c0.41,-0.04 1.24,-0.11 1.66,-0.15z" fill="#ba9657"/>
   <path id="svg_167" d="m945.99,56.4l0.3,-0.2c-0.05,0.14 -0.17,0.43 -0.22,0.57l-0.08,-0.37z" fill="#ba9657"/>
   <path id="svg_168" d="m943.88,58.37c0.55,-0.4 1.64,-1.2 2.19,-1.6c-0.55,0.4 -1.64,1.2 -2.19,1.6z" fill="#ba9657"/>
   <path id="svg_169" d="m943.11,58.65c0.19,-0.07 0.58,-0.21 0.77,-0.28c-0.19,0.07 -0.58,0.21 -0.77,0.28z" fill="#ba9657"/>
   <path id="svg_170" d="m944.21,61.01c0.74,1.14 1.53,2.67 0.62,3.97c-0.49,-0.24 -1.49,-0.72 -1.98,-0.96c0.84,-0.82 1.3,-1.83 1.36,-3.01z" fill="#ba9657"/>
   <path id="svg_171" d="m944.83,64.98c1.84,2.11 3.58,4.32 5.45,6.42c-2.62,-1.34 -5.08,-3.31 -5.45,-6.42z" fill="#ba9657"/>
   <path id="svg_172" d="m931.18,68.21c0.15,0.13 0.46,0.38 0.61,0.51c-0.15,-0.13 -0.46,-0.38 -0.61,-0.51z" fill="#ba9657"/>
   <path id="svg_173" d="m931.79,68.72c0.54,0.22 1.6,0.67 2.13,0.89l-1.18,0.42c-0.24,-0.33 -0.71,-0.98 -0.95,-1.31z" fill="#ba9657"/>
   <path id="svg_174" d="m933.92,69.61c1.4,0.5 2.54,1.36 3.43,2.58l-0.15,0.24c-1.54,-0.26 -3.43,-0.92 -3.28,-2.82z" fill="#ba9657"/>
   <path id="svg_175" d="m937.2,72.43c0.15,0.07 0.45,0.22 0.6,0.3c-0.15,-0.08 -0.45,-0.23 -0.6,-0.3z" fill="#ba9657"/>
   <path id="svg_176" d="m937.8,72.73c0.53,0.19 1.58,0.58 2.11,0.77l-1.18,0.5c-0.23,-0.32 -0.7,-0.96 -0.93,-1.27z" fill="#ba9657"/>
   <path id="svg_177" d="m978.06,73.39c0.44,-0.01 1.33,-0.03 1.78,-0.04l0.63,0.94c0,0.48 0,1.44 -0.01,1.91c-1.04,-0.73 -1.83,-1.7 -2.4,-2.81z" fill="#ba9657"/>
   <path id="svg_178" d="m939.91,73.5c1.62,0.11 2.68,1.48 3.38,2.83c-1.52,-0.24 -3.37,-1.05 -3.38,-2.83z" fill="#ba9657"/>
   <path id="svg_179" d="m943.29,76.33c0.1,0.09 0.3,0.26 0.41,0.34c-0.11,-0.08 -0.31,-0.25 -0.41,-0.34z" fill="#ba9657"/>
   <path id="svg_180" d="m980.46,76.2c0.06,0.15 0.19,0.43 0.25,0.58c-0.06,-0.15 -0.19,-0.43 -0.25,-0.58z" fill="#ba9657"/>
   <path id="svg_181" d="m943.7,76.67c1.65,0.14 3.17,1.14 3.65,2.8c-1.64,-0.24 -3.05,-1.26 -3.65,-2.8z" fill="#ba9657"/>
   <path id="svg_182" d="m980.71,76.78c1.62,2.57 0.76,5.61 0.56,8.42c0.03,-2.81 0.22,-5.68 -0.56,-8.42z" fill="#ba9657"/>
   <path id="svg_183" d="m947.35,79.47c0.17,0.15 0.5,0.45 0.66,0.6c-0.16,-0.15 -0.49,-0.45 -0.66,-0.6z" fill="#ba9657"/>
   <path id="svg_184" d="m948.01,80.07c0.18,0.15 0.54,0.46 0.71,0.61c-0.17,-0.15 -0.53,-0.46 -0.71,-0.61z" fill="#ba9657"/>
   <path id="svg_185" d="m948.72,80.68c1.35,0.6 1.84,2.54 0.37,3.33c-0.09,-0.83 -0.27,-2.5 -0.37,-3.33z" fill="#ba9657"/>
   <path id="svg_186" d="m944.91,84.83c1.13,-0.98 2.73,-1.44 4.18,-0.82c-0.98,1.29 -2.81,1.67 -4.18,0.82z" fill="#ba9657"/>
   <path id="svg_187" d="m941.91,86.16c0.78,-0.89 1.78,-1.33 3,-1.33c-0.64,0.49 -1.93,1.46 -2.57,1.95l-0.43,-0.62z" fill="#ba9657"/>
   <path id="svg_188" d="m980.27,90.22c-0.62,-1.62 -1.17,-4.32 1,-5.02c0.1,1.74 -0.14,3.49 -1,5.02z" fill="#ba9657"/>
   <path id="svg_189" d="m939.37,87.67c0.22,-1.33 1.06,-1.84 2.54,-1.51c-0.29,1.28 -1.14,1.78 -2.54,1.51z" fill="#ba9657"/>
   <path id="svg_190" d="m932.72,87.59c2.21,-0.17 4.44,-0.21 6.65,0.08l-0.49,0.11c-1.8,0.57 -3.69,0.83 -5.47,0.06l-0.69,-0.25z" fill="#ba9657"/>
   <path id="svg_191" d="m978.6,90.71c0.42,-0.12 1.25,-0.37 1.67,-0.49c-0.23,0.45 -0.69,1.34 -0.93,1.79c-0.18,-0.33 -0.55,-0.97 -0.74,-1.3z" fill="#ba9657"/>
   <path id="svg_192" d="m947.98,92.49c1.95,1.94 4.59,2.82 7.35,2.47c0.07,0.38 0.22,1.14 0.3,1.51c0.04,1.13 0.11,2.25 0.38,3.35c-1.98,-1.79 -4.33,-3.11 -6.85,-3.95c0.05,3.32 -2.55,5.3 -4.78,7.28c0.15,-3.85 2,-7.26 3.6,-10.66m-0.72,5.73c0.57,0.54 0.57,0.54 0,0z" fill="#ba9657"/>
   <path id="svg_193" d="m846.94,104.71c0.66,-0.12 1.99,-0.34 2.66,-0.45c0.05,0.19 0.16,0.58 0.21,0.77l0.41,0.97c-1.99,0 -3.1,1.44 -4,2.96l-0.32,0.49c-1.54,2.14 -2.86,4.42 -4.28,6.64c0.31,-4.32 3.24,-7.77 5.32,-11.38z" fill="#ba9657"/>
   <path id="svg_194" d="m855.87,103.97c1.48,0.23 2.97,0.47 4.47,0.73c-1.4,0.47 -2.76,1 -4.12,1.53c-0.03,0.71 -0.08,2.12 -0.1,2.83c0.01,0.46 0.04,1.38 0.05,1.85c0.03,1.52 0,3.05 -0.1,4.57c-1.48,-0.69 -1.94,-2.1 -1.92,-3.61c0.08,-0.09 0.25,-0.26 0.33,-0.34c-0.08,0.08 -0.25,0.25 -0.33,0.34c-2.34,-0.49 -2.48,-3.54 -3.44,-5.24c1.19,0.61 2.18,1.46 2.99,2.53c0.04,0.16 0.13,0.47 0.17,0.62l0.14,-0.27c0.94,-1.72 1.37,-3.65 1.86,-5.54z" fill="#ba9657"/>
   <path id="svg_195" d="m885.69,103.89c1.51,1.19 1.83,3.25 0.89,4.91l-0.69,-0.22c-0.47,-1.18 -0.57,-2.45 -0.5,-3.7c0.07,-0.25 0.22,-0.74 0.3,-0.99z" fill="#ba9657"/>
   <path id="svg_196" d="m943.35,104.33c0.35,0.19 1.05,0.57 1.41,0.77l0.15,0.88l-0.8,0.01c-0.19,-0.42 -0.57,-1.25 -0.76,-1.66z" fill="#ba9657"/>
   <path id="svg_197" d="m850.22,106c0.13,0.16 0.37,0.47 0.49,0.63c-0.12,-0.16 -0.36,-0.47 -0.49,-0.63z" fill="#ba9657"/>
   <path id="svg_198" d="m944.91,105.98c0.26,0.52 0.78,1.56 1.04,2.07c-0.26,-0.51 -0.78,-1.55 -1.04,-2.07z" fill="#ba9657"/>
   <path id="svg_199" d="m945.95,108.05c0.33,0.48 0.98,1.44 1.31,1.92l-0.84,-0.18c-0.12,-0.43 -0.35,-1.3 -0.47,-1.74z" fill="#ba9657"/>
   <path id="svg_200" d="m947.26,109.97c0.85,1.17 1.1,2.61 0.93,4.03c-1.72,-0.51 -1.89,-2.77 -0.93,-4.03z" fill="#ba9657"/>
   <path id="svg_201" d="m948.19,114c1.01,1.85 1.32,3.99 0.76,6.03c-1.75,-1.54 -1.41,-4.05 -0.76,-6.03z" fill="#ba9657"/>
   <path id="svg_202" d="m856.07,115.48c1.12,1.28 1.25,3.02 1.12,4.65c-0.4,-0.17 -1.19,-0.51 -1.59,-0.67c-0.43,-1.34 -0.26,-2.78 0.47,-3.98z" fill="#ba9657"/>
   <path id="svg_203" d="m1001.84,116.18c0.16,-0.16 0.49,-0.46 0.66,-0.61c-0.17,0.15 -0.5,0.45 -0.66,0.61z" fill="#ba9657"/>
   <path id="svg_204" d="m841.34,116.82c0.07,-0.18 0.21,-0.55 0.28,-0.73c-0.07,0.18 -0.21,0.55 -0.28,0.73z" fill="#ba9657"/>
   <path id="svg_205" d="m997.21,116.36c0.1,0.42 0.31,1.26 0.41,1.68c0.67,-0.11 2,-0.34 2.67,-0.45c-3.31,3.92 -1.76,9.15 -1.66,13.77c-0.95,-0.88 -1.8,-1.86 -1.5,-3.25c0.31,-3.92 -0.39,-7.84 0.08,-11.75z" fill="#ba9657"/>
   <path id="svg_206" d="m1001.05,116.91c0.2,-0.18 0.59,-0.55 0.79,-0.73c-0.2,0.18 -0.59,0.55 -0.79,0.73z" fill="#ba9657"/>
   <path id="svg_207" d="m911.49,117.24c2.16,-0.64 2.88,2.25 3.32,3.81c-1.64,-0.37 -3.86,-2.02 -3.32,-3.81z" fill="#ba9657"/>
   <path id="svg_208" d="m1000.29,117.59c0.19,-0.17 0.57,-0.51 0.76,-0.68c-0.19,0.17 -0.57,0.51 -0.76,0.68z" fill="#ba9657"/>
   <path id="svg_209" d="m909.15,118.28l0.78,0.09c0.04,0.42 0.11,1.26 0.15,1.69c-0.31,-0.27 -0.93,-0.81 -1.24,-1.08l0.31,-0.7z" fill="#ba9657"/>
   <path id="svg_210" d="m910.08,120.06c1.91,0.24 2.25,2.33 2.14,3.92c-1.76,-0.48 -2.15,-2.36 -2.14,-3.92z" fill="#ba9657"/>
   <path id="svg_211" d="m948.95,120.03c1.79,1.19 1.41,3.46 0.27,4.96c-0.68,-1.57 -0.72,-3.33 -0.27,-4.96z" fill="#ba9657"/>
   <path id="svg_212" d="m914.81,121.05c1.61,0.08 2.44,1.77 2.6,3.2c-1.34,-0.5 -2.79,-1.62 -2.6,-3.2z" fill="#ba9657"/>
   <path id="svg_213" d="m912.22,123.98c1.26,2.15 1.51,4.82 -0.07,6.88c-0.6,-2.26 -0.64,-4.64 0.07,-6.88z" fill="#ba9657"/>
   <path id="svg_214" d="m917.41,124.25c0.16,0.19 0.47,0.56 0.62,0.74c-0.15,-0.18 -0.46,-0.55 -0.62,-0.74z" fill="#ba9657"/>
   <path id="svg_215" d="m918.03,124.99c0.18,0.21 0.52,0.63 0.69,0.84c-0.17,-0.21 -0.51,-0.63 -0.69,-0.84z" fill="#ba9657"/>
   <path id="svg_216" d="m946.75,127.78c0.21,-1.28 0.89,-2.88 2.47,-2.79c-0.01,1.4 -0.81,3.09 -2.47,2.79z" fill="#ba9657"/>
   <path id="svg_217" d="m894.67,126.32c3.5,-0.37 6.91,0.5 9.55,2.9l-1.52,-0.3c0.08,0.75 0.26,2.25 0.35,3c-1.67,-3.07 -4.33,-6.62 -8.32,-5.03l-0.06,-0.57z" fill="#ba9657"/>
   <path id="svg_218" d="m918.72,125.83c0.35,0.61 1.06,1.84 1.42,2.45c-0.36,-0.61 -1.07,-1.84 -1.42,-2.45z" fill="#ba9657"/>
   <path id="svg_219" d="m920.14,128.28c0,0.12 0.01,0.37 0.02,0.49l-0.02,-0.49z" fill="#ba9657"/>
   <path id="svg_220" d="m946.6,128.18c0.03,-0.1 0.11,-0.3 0.15,-0.4l0.09,0.17l-0.24,0.23z" fill="#ba9657"/>
   <path id="svg_221" d="m904.22,129.22c2.04,-0.79 5.03,-1.12 6,1.39c-2.09,-0.01 -4.18,-0.33 -6,-1.39z" fill="#ba9657"/>
   <path id="svg_222" d="m910.22,130.61c0.49,0.07 1.45,0.19 1.93,0.25c-0.84,1.35 -1.48,1.27 -1.93,-0.25z" fill="#ba9657"/>
   <path id="svg_223" d="m998.63,131.36l0.87,0.15c0.02,0.42 0.04,1.26 0.06,1.68c-0.23,-0.46 -0.7,-1.37 -0.93,-1.83z" fill="#ba9657"/>
   <path id="svg_224" d="m864.19,135.24l0.82,-0.2c0.2,0.35 0.6,1.04 0.81,1.38c-0.39,-0.1 -1.15,-0.31 -1.54,-0.41l-0.09,-0.77z" fill="#ba9657"/>
   <path id="svg_225" d="m865.82,136.42c3.25,-0.3 5.94,1.64 8.36,3.54c-2.96,-0.77 -5.72,-2.05 -8.36,-3.54z" fill="#ba9657"/>
   <path id="svg_226" d="m874.18,139.96c1.39,0.02 2.48,1.04 2.99,2.3c-1.44,0.05 -3.43,-0.41 -2.99,-2.3z" fill="#ba9657"/>
   <path id="svg_227" d="m877.17,142.26c0.14,0.13 0.42,0.38 0.56,0.51c-0.14,-0.13 -0.42,-0.38 -0.56,-0.51z" fill="#ba9657"/>
   <path id="svg_228" d="m877.73,142.77c0.97,0.41 1.79,1.02 2.44,1.84c-0.32,0.28 -0.95,0.83 -1.26,1.11l-0.73,-0.59c-0.11,-0.59 -0.34,-1.77 -0.45,-2.36z" fill="#ba9657"/>
   <path id="svg_229" d="m1005.46,144.51c2.85,-0.54 5.69,0.23 7.63,2.45c2.93,2.14 3.86,6.26 7.28,7.74c-0.27,0.47 -0.79,1.4 -1.06,1.86c-2.43,-4.02 -6.49,-6.75 -10.12,-9.37c-3.81,3.15 -3.75,8.73 -3.7,13.31c-1.03,-1.4 -1.13,-3.1 -0.99,-4.78c0.48,-1.87 0.18,-3.8 -0.03,-5.67c0.68,-1.77 1.61,-3.6 0.99,-5.54z" fill="#ba9657"/>
   <path id="svg_230" d="m926.44,146.65l0.2,0.65c0.94,2.58 2.32,5.14 1.71,7.98c-0.2,-2.98 -1.93,-5.61 -1.91,-8.63z" fill="#ba9657"/>
   <path id="svg_231" d="m909.9,149.87c0.22,-0.27 0.64,-0.8 0.85,-1.07c1.43,0.13 2.28,0.93 2.57,2.39c-1.15,-0.43 -2.29,-0.87 -3.42,-1.32z" fill="#ba9657"/>
   <path id="svg_232" d="m909.1,150.82c0.51,0.37 1.53,1.09 2.04,1.45c-0.48,-0.13 -1.42,-0.4 -1.89,-0.53l-0.15,-0.92z" fill="#ba9657"/>
   <path id="svg_233" d="m913.32,151.19c0.08,0.14 0.23,0.43 0.3,0.58l-0.48,-0.04l0.18,-0.54z" fill="#ba9657"/>
   <path id="svg_234" d="m911.14,152.27c0.5,-0.13 1.5,-0.41 2,-0.54c0.12,0.01 0.36,0.03 0.48,0.04c0.77,1.06 1.32,2.22 1.66,3.49c-1.65,-0.57 -3.34,-1.35 -4.14,-2.99z" fill="#ba9657"/>
   <path id="svg_235" d="m906.86,153.14l0.52,-0.48c1.41,0.21 2.32,2.78 0.44,2.99l-0.47,-0.39c-0.12,-0.53 -0.36,-1.59 -0.49,-2.12z" fill="#ba9657"/>
   <path id="svg_236" d="m841.39,153.97c0.65,-0.07 1.95,-0.22 2.6,-0.3l-0.26,0.48c-0.4,0.5 -1.19,1.5 -1.59,2c-0.4,0.44 -1.18,1.31 -1.58,1.75l0.14,-0.59l0.12,-0.55l-0.48,-0.09l-0.18,0.53l-0.22,0.62l-0.91,-0.03l-0.2,-0.33c0.09,-0.61 0.25,-1.83 0.34,-2.44c0.55,-0.26 1.66,-0.78 2.22,-1.05z" fill="#ba9657"/>
   <path id="svg_237" d="m915.28,155.26c0.15,0.19 0.43,0.57 0.57,0.75c-0.14,-0.18 -0.42,-0.56 -0.57,-0.75z" fill="#ba9657"/>
   <path id="svg_238" d="m926.8,159.12c-0.42,-1.43 0.05,-3.24 1.55,-3.84c-0.08,1.36 -0.19,2.72 -0.28,4.09c-0.32,-0.07 -0.96,-0.19 -1.27,-0.25z" fill="#ba9657"/>
   <path id="svg_239" d="m915.85,156.01c0.17,0.15 0.51,0.44 0.68,0.59l-0.53,-0.03l-0.15,-0.56z" fill="#ba9657"/>
   <path id="svg_240" d="m889.23,157.04l0.93,0.2c-0.01,0.44 -0.03,1.33 -0.04,1.77c-0.22,-0.5 -0.67,-1.48 -0.89,-1.97z" fill="#ba9657"/>
   <path id="svg_241" d="m906.61,158.67c3.29,0.22 -0.15,-3.28 0,0z" fill="#ba9657"/>
   <path id="svg_242" d="m838.72,158.08l0.31,-0.29c-1.25,2.16 2.15,2.21 0.91,0.03l0.62,0.08c-0.42,4.69 1.24,9.08 2.42,13.53l-0.39,-0.58c-0.44,-0.61 -1.3,-1.82 -1.74,-2.42c-0.44,-1.41 -0.82,-2.85 -1.2,-4.27l-0.17,-0.47c-0.05,-0.13 -0.15,-0.4 -0.2,-0.53c-0.29,-0.53 -0.88,-1.61 -1.17,-2.14c0.15,-0.74 0.46,-2.2 0.61,-2.94z" fill="#ba9657"/>
   <path id="svg_243" d="m871.33,159.88c2.03,0.48 3.71,-2.26 5.59,-0.92c-1.98,1.96 -2.31,4.97 -4.24,6.98c1.33,-1.34 1.78,-3.76 -0.19,-4.71c-0.29,-0.34 -0.87,-1.02 -1.16,-1.35z" fill="#ba9657"/>
   <path id="svg_244" d="m876.92,158.96c1.26,0.3 2.05,1.09 2.37,2.38c-1.5,-0.11 -2.29,-0.9 -2.37,-2.38z" fill="#ba9657"/>
   <path id="svg_245" d="m890.12,159.01c1.13,0.8 1.46,1.84 0.99,3.12c-1.24,-0.68 -1.57,-1.72 -0.99,-3.12z" fill="#ba9657"/>
   <path id="svg_246" d="m904.29,171.14c1.88,-3.9 2.31,-8.19 2.32,-12.47c0.09,4.28 0.78,9.01 -2.32,12.47z" fill="#ba9657"/>
   <path id="svg_247" d="m879.29,161.34c0.15,0.17 0.45,0.51 0.6,0.68c-0.15,-0.17 -0.45,-0.51 -0.6,-0.68z" fill="#ba9657"/>
   <path id="svg_248" d="m879.89,162.02c0.14,0.18 0.43,0.53 0.57,0.71c-0.14,-0.18 -0.43,-0.53 -0.57,-0.71z" fill="#ba9657"/>
   <path id="svg_249" d="m891.11,162.13c1.88,1.25 2.26,3.55 1.91,5.64l-0.53,0.04c-1.22,-1.63 -1.49,-3.71 -1.38,-5.68z" fill="#ba9657"/>
   <path id="svg_250" d="m880.46,162.73l0.61,0.3c1.21,0.93 2.47,1.84 3.79,2.65c0.09,0.65 0.28,1.93 0.38,2.58c-2.1,-1.34 -3.95,-3.14 -4.78,-5.53z" fill="#ba9657"/>
   <path id="svg_251" d="m871.88,165.82l0.8,0.12c0.14,2.83 -0.07,5.67 -0.42,8.49c-0.81,-2.81 -0.83,-5.74 -0.38,-8.61z" fill="#ba9657"/>
   <path id="svg_252" d="m1026.92,165.89c0.96,0.35 1.93,0.71 2.9,1.1c0.3,0.2 0.89,0.59 1.18,0.79c3,1.98 5.15,4.96 6.85,8.09l-0.06,1.42c-1.76,-2.95 -4.95,-4.79 -6.22,-8.05c-0.43,0.39 -0.86,0.78 -1.26,1.18c-0.79,-0.55 -1.57,-1.09 -2.33,-1.62c-2.59,4.13 -3.79,8.86 -3.36,13.73l-0.8,1c-0.69,-4.16 -0.51,-8.37 -0.14,-12.54c1.8,-1.18 2.98,-2.92 3.24,-5.1z" fill="#ba9657"/>
   <path id="svg_253" d="m885.24,168.26c0.14,0.16 0.41,0.5 0.55,0.67c-0.14,-0.17 -0.41,-0.51 -0.55,-0.67z" fill="#ba9657"/>
   <path id="svg_254" d="m885.79,168.93c0.29,0.52 0.88,1.57 1.17,2.09c-0.29,-0.52 -0.88,-1.57 -1.17,-2.09z" fill="#ba9657"/>
   <path id="svg_255" d="m886.96,171.02c0.26,0.49 0.77,1.47 1.03,1.95c-0.26,-0.48 -0.77,-1.46 -1.03,-1.95z" fill="#ba9657"/>
   <path id="svg_256" d="m901.95,173.17c0.17,-1.46 0.95,-2.13 2.34,-2.03c-0.22,1.4 -1,2.08 -2.34,2.03z" fill="#ba9657"/>
   <path id="svg_257" d="m887.99,172.97c0.27,0.28 0.8,0.83 1.07,1.11c-0.91,0.72 -1.26,0.36 -1.07,-1.11z" fill="#ba9657"/>
   <path id="svg_258" d="m901.38,173.27l0.57,-0.1l0.08,0.55c-0.16,-0.11 -0.48,-0.33 -0.65,-0.45z" fill="#ba9657"/>
   <path id="svg_259" d="m1022.13,192.96c0.53,-1.28 2.68,-0.96 3.8,-0.56c0.31,0.52 0.92,1.57 1.23,2.09c-0.55,-0.07 -1.65,-0.22 -2.2,-0.3c-0.67,-1 -1.61,-1.41 -2.83,-1.23z" fill="#ba9657"/>
   <path id="svg_260" d="m1019.15,196.54c0.97,-1.2 1.68,-2.69 2.98,-3.58c0.3,1.47 1.24,1.88 2.83,1.23l0.76,1.23c-1.46,-0.1 -2.9,-0.17 -4.34,-0.21c-0.49,1.86 -1.08,3.7 -1.68,5.53l0.02,-0.75c-0.14,-0.87 -0.43,-2.59 -0.57,-3.45z" fill="#ba9657"/>
   <path id="svg_261" d="m1027.16,194.49c0.19,0.14 0.57,0.4 0.77,0.53c-0.2,-0.13 -0.58,-0.39 -0.77,-0.53z" fill="#ba9657"/>
   <path id="svg_262" d="m1025.72,195.42c0.09,0.13 0.25,0.39 0.33,0.53c-0.08,-0.14 -0.24,-0.4 -0.33,-0.53z" fill="#ba9657"/>
   <path id="svg_263" d="m1027.93,195.02c0.28,0.22 0.85,0.64 1.14,0.85c-0.29,-0.21 -0.86,-0.63 -1.14,-0.85z" fill="#ba9657"/>
   <path id="svg_264" d="m1026.05,195.95c0.28,0.3 0.84,0.91 1.12,1.22c-0.28,-0.31 -0.84,-0.92 -1.12,-1.22z" fill="#ba9657"/>
   <path id="svg_265" d="m1029.07,195.87c0.14,0.18 0.43,0.54 0.58,0.72c-0.15,-0.18 -0.44,-0.54 -0.58,-0.72z" fill="#ba9657"/>
   <path id="svg_266" d="m1027.17,197.17c0.24,0.21 0.71,0.64 0.95,0.86c-0.24,-0.22 -0.71,-0.65 -0.95,-0.86z" fill="#ba9657"/>
   <path id="svg_267" d="m1029.65,196.59c1.64,3.04 2.49,6.42 3.15,9.79l-0.36,-0.25c-1.25,-2.52 -2.19,-5.19 -3.68,-7.58c0.22,-0.2 0.67,-0.6 0.9,-0.8l-0.01,-1.16z" fill="#ba9657"/>
   <path id="svg_268" d="m1028.12,198.03c0.16,0.13 0.48,0.39 0.64,0.52c-0.16,-0.13 -0.48,-0.39 -0.64,-0.52z" fill="#ba9657"/>
  </g>
  <g id="#8b8b8b8c">
   <path id="svg_269" d="m383.01,57.64c2.06,-1.23 5.12,-1.59 6.85,0.4c-2.23,-0.74 -4.56,-0.66 -6.85,-0.4z" opacity="0.55" fill="#8b8b8b"/>
  </g>
  <g id="#8d8d8d8d">
   <path id="svg_270" d="m490.15,57.79c1.16,-1.09 2.74,-1.18 4.26,-1.21c0.36,0.29 1.1,0.87 1.46,1.17c-1.89,-0.45 -3.84,-0.38 -5.72,0.04z" opacity="0.55" fill="#8d8d8d"/>
  </g>
  <g id="#a5772bff">
   <path id="svg_271" d="m942.4,58.62c-2.52,-1.95 2.11,-3.44 3.59,-2.22l0.08,0.37c-0.55,0.4 -1.64,1.2 -2.19,1.6c-0.19,0.07 -0.58,0.21 -0.77,0.28l-0.71,-0.03z" fill="#a5772b"/>
   <path id="svg_272" d="m946.29,56.2c5.88,-0.5 11.22,2.26 16.17,5.08c5.69,3.29 11.48,6.87 15.6,12.11c0.57,1.11 1.36,2.08 2.4,2.81c0.06,0.15 0.19,0.43 0.25,0.58c0.78,2.74 0.59,5.61 0.56,8.42c-2.17,0.7 -1.62,3.4 -1,5.02c-0.42,0.12 -1.25,0.37 -1.67,0.49c-0.38,-0.29 -1.13,-0.87 -1.51,-1.16c-0.58,-0.05 -1.73,-0.15 -2.31,-0.2c-7.41,-5.24 -14.8,-10.53 -22.21,-15.77c-0.19,-0.18 -0.57,-0.56 -0.76,-0.75c-0.24,-0.22 -0.71,-0.68 -0.94,-0.9c-0.15,-0.13 -0.45,-0.4 -0.59,-0.53c-1.87,-2.1 -3.61,-4.31 -5.45,-6.42c0.91,-1.3 0.12,-2.83 -0.62,-3.97c-0.27,-0.59 -0.82,-1.77 -1.1,-2.36c0.19,-0.07 0.58,-0.21 0.77,-0.28c0.55,-0.4 1.64,-1.2 2.19,-1.6c0.05,-0.14 0.17,-0.43 0.22,-0.57z" fill="#a5772b"/>
   <path id="svg_273" d="m903.06,59.13c3.24,-0.2 6.61,-1.44 9.8,-0.26c5.21,2 10.25,4.51 14.91,7.59c0.2,0.36 0.62,1.08 0.83,1.44c0.64,0.08 1.93,0.23 2.58,0.31c0.15,0.13 0.46,0.38 0.61,0.51c0.24,0.33 0.71,0.98 0.95,1.31l1.18,-0.42c-0.15,1.9 1.74,2.56 3.28,2.82c0.15,0.07 0.45,0.22 0.6,0.3c0.23,0.31 0.7,0.95 0.93,1.27l1.18,-0.5c0.01,1.78 1.86,2.59 3.38,2.83c0.1,0.09 0.3,0.26 0.41,0.34c0.6,1.54 2.01,2.56 3.65,2.8c0.17,0.15 0.5,0.45 0.66,0.6c0.18,0.15 0.54,0.46 0.71,0.61c0.1,0.83 0.28,2.5 0.37,3.33c-1.45,-0.62 -3.05,-0.16 -4.18,0.82c-1.22,0 -2.22,0.44 -3,1.33c-1.48,-0.33 -2.32,0.18 -2.54,1.51c-2.21,-0.29 -4.44,-0.25 -6.65,-0.08c-1.61,-0.58 -3.21,-1.15 -4.76,-1.85c-6.63,-4.08 -13.04,-8.61 -18.53,-14.16c-2.71,-2.83 -4.64,-6.33 -5.66,-10.1c-0.18,-0.59 -0.53,-1.77 -0.71,-2.35z" fill="#a5772b"/>
   <path id="svg_274" d="m930.98,57.81c1.33,0.25 2.68,0.48 4.03,0.78c3.39,0.37 5.37,3.44 7.84,5.43c0.49,0.24 1.49,0.72 1.98,0.96c0.37,3.11 2.83,5.08 5.45,6.42c0.14,0.13 0.44,0.4 0.59,0.53c0.23,0.22 0.7,0.68 0.94,0.9c0.19,0.19 0.57,0.57 0.76,0.75c3.12,6.28 8.84,11.01 11.11,17.71c3.23,0.4 5.38,2.87 8.06,4.4c1.16,1.66 2.42,3.27 3.45,5.03c1.26,3.79 4.24,6.66 5.67,10.36c1.54,6.05 5.88,10.84 7.58,16.85c2.29,0.22 3.07,-1.9 4.02,-3.56l0.68,-0.45c1.13,1.56 2.53,2.91 3.99,4.19c-0.3,1.39 0.55,2.37 1.5,3.25c0.23,0.46 0.7,1.37 0.93,1.83l-0.21,0.86c0.35,0.22 1.07,0.67 1.42,0.89c-0.94,1.12 -1.01,2.32 -0.2,3.6c0.28,0.99 0.55,1.98 0.8,2.98c0.19,3.53 0.58,7.04 1.29,10.51c-0.12,4.55 -0.94,9.28 0.5,13.71c1.14,3.11 0.71,6.67 -0.85,9.55c-1.34,0.94 -2.55,-0.37 -3.66,-0.99c-2.28,-1.83 -5.86,-0.91 -7.72,-3.4c-3.09,-3.36 -2.74,-8.52 -5.76,-11.92c0.34,-0.16 1.03,-0.49 1.38,-0.65c-1.31,-8.51 -0.41,-17.03 0.01,-25.55c-2.91,-0.17 -5.97,0.32 -8.73,-0.83c-3.1,-1.02 -4.96,-3.89 -7.19,-6.07c-0.95,-1.05 -1.83,-2.16 -2.59,-3.34c-2.87,-6.28 -6.08,-12.46 -7.86,-19.17c0.16,-2.97 1.26,-5.76 2.77,-8.3c-0.6,0.11 -1.8,0.33 -2.41,0.44c-0.52,-0.46 -1.02,-0.93 -1.52,-1.39c-0.6,0.15 -1.79,0.45 -2.39,0.59c-0.33,0.07 -0.99,0.19 -1.31,0.25c-2.76,0.35 -5.4,-0.53 -7.35,-2.47c-1.14,-0.86 -2.29,-1.68 -3.44,-2.48c-0.8,-1.04 -1.5,-2.14 -2.2,-3.23c0.64,-0.49 1.93,-1.46 2.57,-1.95c1.37,0.85 3.2,0.47 4.18,-0.82c1.47,-0.79 0.98,-2.73 -0.37,-3.33c-0.17,-0.15 -0.53,-0.46 -0.71,-0.61c-0.16,-0.15 -0.49,-0.45 -0.66,-0.6c-0.48,-1.66 -2,-2.66 -3.65,-2.8c-0.11,-0.08 -0.31,-0.25 -0.41,-0.34c-0.7,-1.35 -1.76,-2.72 -3.38,-2.83c-0.53,-0.19 -1.58,-0.58 -2.11,-0.77c-0.15,-0.08 -0.45,-0.23 -0.6,-0.3l0.15,-0.24c-0.89,-1.22 -2.03,-2.08 -3.43,-2.58c-0.53,-0.22 -1.59,-0.67 -2.13,-0.89c-0.15,-0.13 -0.46,-0.38 -0.61,-0.51c-0.07,-3.47 0.27,-6.94 -0.2,-10.4z" fill="#a5772b"/>
   <path id="svg_275" d="m942.85,64.02c-0.73,-1.58 -0.28,-2.58 1.36,-3.01c-0.06,1.18 -0.52,2.19 -1.36,3.01z" fill="#a5772b"/>
   <path id="svg_276" d="m880.54,64.4c6.29,3.37 11.69,8.18 17.34,12.53c0.54,-0.35 1.63,-1.06 2.17,-1.41c1.73,0.84 3.46,1.71 5.18,2.61c-0.79,0.57 -1.57,1.14 -2.34,1.72c0.82,-0.17 2.46,-0.52 3.28,-0.69c2.34,2.23 4.74,4.44 6.61,7.09c0.2,0.33 0.62,0.98 0.83,1.31c2.48,4.8 5.4,9.38 7.33,14.45c1.52,4.17 5.35,6.85 7.21,10.83c-0.17,1.56 0.52,2.96 1.58,4.06c2.49,3.78 2.09,8.86 -0.21,12.63c-0.68,1.09 -1.06,2.32 -1.49,3.51c0.34,0.35 1.02,1.03 1.36,1.38c0.08,-0.91 -0.43,-2.09 0.47,-2.73c1.3,-0.26 2.43,0.08 3.39,1.02c2.75,2.46 4.88,5.53 6.89,8.61c0.11,0.22 0.33,0.65 0.44,0.86c1.87,5.58 4.37,11 5.27,16.87c0.22,4.58 -0.14,9.19 -1.01,13.69c-0.08,0.42 -0.23,1.26 -0.31,1.68c-3.12,1.85 -4.85,5.14 -7.61,7.24c-4.8,-6.06 -4.97,-14.1 -7.56,-21.09c-0.32,-0.3 -0.97,-0.9 -1.29,-1.2c0.09,-1.37 0.2,-2.73 0.28,-4.09c0.61,-2.84 -0.77,-5.4 -1.71,-7.98c-0.16,-2.92 -1.23,-6.23 0.89,-8.71c-0.3,-0.18 -0.9,-0.54 -1.19,-0.72l-0.1,-0.39c0.06,-0.4 0.18,-1.18 0.25,-1.58c-1.64,-0.18 -2.85,-1.3 -4,-2.33c-0.28,-1.87 -2.29,-2.87 -2.33,-4.8c-0.01,-0.12 -0.02,-0.37 -0.02,-0.49c-0.36,-0.61 -1.07,-1.84 -1.42,-2.45c-0.17,-0.21 -0.51,-0.63 -0.69,-0.84c-0.15,-0.18 -0.46,-0.55 -0.62,-0.74c-0.16,-1.43 -0.99,-3.12 -2.6,-3.2c-0.44,-1.56 -1.16,-4.45 -3.32,-3.81c-0.54,1.79 1.68,3.44 3.32,3.81c-0.19,1.58 1.26,2.7 2.6,3.2c0.16,0.19 0.47,0.56 0.62,0.74c0.18,0.21 0.52,0.63 0.69,0.84c0.35,0.61 1.06,1.84 1.42,2.45l0.02,0.49c-0.53,0.8 -0.74,1.65 -0.63,2.57c0.5,0.29 1.49,0.86 1.99,1.15c0.46,1.39 0.9,2.81 1.72,4.05c0.27,0.34 0.82,1.01 1.1,1.34c0.9,2.87 2.01,5.72 2.1,8.77c-0.02,3.02 1.71,5.65 1.91,8.63c-1.5,0.6 -1.97,2.41 -1.55,3.84c-2.01,0.19 -4.01,0.27 -6,0.31c-1.44,-0.92 -2.93,-1.78 -4.27,-2.83c-0.17,-0.15 -0.51,-0.44 -0.68,-0.59c-0.14,-0.18 -0.42,-0.56 -0.57,-0.75c-0.34,-1.27 -0.89,-2.43 -1.66,-3.49c-0.07,-0.15 -0.22,-0.44 -0.3,-0.58c-0.29,-1.46 -1.14,-2.26 -2.57,-2.39c-3.47,-5.16 -4.72,-11.46 -7.7,-16.88c-0.09,-0.75 -0.27,-2.25 -0.35,-3l1.52,0.3c1.82,1.06 3.91,1.38 6,1.39c0.45,1.52 1.09,1.6 1.93,0.25c1.58,-2.06 1.33,-4.73 0.07,-6.88c0.11,-1.59 -0.23,-3.68 -2.14,-3.92c-0.04,-0.43 -0.11,-1.27 -0.15,-1.69l-0.78,-0.09l-0.31,0.7c0.31,0.27 0.93,0.81 1.24,1.08c-0.01,1.56 0.38,3.44 2.14,3.92c-0.71,2.24 -0.67,4.62 -0.07,6.88c-0.48,-0.06 -1.44,-0.18 -1.93,-0.25c-0.97,-2.51 -3.96,-2.18 -6,-1.39c-2.64,-2.4 -6.05,-3.27 -9.55,-2.9c-1.93,-3.05 -3.51,-6.3 -5.09,-9.54c-0.25,-0.52 -0.75,-1.58 -1,-2.1c-0.68,-1.96 -1.27,-3.95 -2,-5.88c0.94,-1.66 0.62,-3.72 -0.89,-4.91c-0.7,-5.16 -0.75,-10.65 1.92,-15.3c-0.11,-0.2 -0.35,-0.6 -0.47,-0.8c-0.63,-0.78 -1.26,-1.56 -1.92,-2.29c-5,-3.2 -8.02,-8.41 -12.21,-12.47c-1.74,-1.56 -2.39,-3.84 -2.9,-6.02c0.48,0.01 1.44,0.03 1.92,0.05c-0.5,1.01 -0.96,3.54 0.53,3.76c0.48,-1.21 0.5,-2.46 0.06,-3.75c-0.09,-0.52 -0.28,-1.56 -0.37,-2.08c2.76,-0.07 5.53,-0.27 8.29,-0.59m6.72,28.81c-0.64,1.48 -0.24,1.92 1.19,1.32c0.61,-1.47 0.21,-1.91 -1.19,-1.32m9.78,0.13c1.33,3.08 3.36,5.81 4.69,8.9c1.62,3.09 2.43,6.6 4.64,9.36c-0.06,1.04 -0.03,2.09 0.1,3.14l0.12,-0.21c0.07,1.29 1.67,2.99 2.98,2.05c0.16,-1.09 -0.18,-2.04 -1.03,-2.85c-0.13,-1.36 -1.15,-2.32 -2.03,-3.23c0.17,-1.66 -1.12,-3.05 -1.67,-4.54c-2.18,-3.97 -3.43,-8.35 -5.31,-12.45c-0.63,-0.04 -1.87,-0.13 -2.49,-0.17m36.18,41.86c0.61,0.59 0.61,0.59 0,0z" fill="#a5772b"/>
   <path id="svg_277" d="m980.47,74.29c2.64,0.66 4.78,2.59 6.92,4.21c7.24,7.68 14.61,15.98 17.01,26.58c-0.87,3.33 -3.13,6.93 -1.9,10.49c-0.17,0.15 -0.5,0.45 -0.66,0.61c-0.2,0.18 -0.59,0.55 -0.79,0.73c-0.19,0.17 -0.57,0.51 -0.76,0.68c-0.67,0.11 -2,0.34 -2.67,0.45c-0.1,-0.42 -0.31,-1.26 -0.41,-1.68c-6.74,-7.48 -12.5,-15.85 -17.87,-24.35c0.24,-0.45 0.7,-1.34 0.93,-1.79c0.86,-1.53 1.1,-3.28 1,-5.02c0.2,-2.81 1.06,-5.85 -0.56,-8.42c-0.06,-0.15 -0.19,-0.43 -0.25,-0.58c0.01,-0.47 0.01,-1.43 0.01,-1.91z" fill="#a5772b"/>
   <path id="svg_278" d="m849.85,78.82c1.1,-0.58 2.24,-1.13 3.33,-1.75l0.44,1.15c8.36,1.59 15.3,6.84 21.7,12.13c0.66,0.53 1.36,1.03 2.04,1.56c3.39,3.7 8.08,7.52 8.03,12.97c-0.07,1.25 0.03,2.52 0.5,3.7c-1.2,2.51 -1.88,5.21 -1.29,7.98c-0.88,0.42 -1.77,0.82 -2.64,1.2c-8.25,-4.94 -14.22,-12.63 -21.49,-18.78c-0.34,-0.24 -1.03,-0.73 -1.38,-0.97c-2.57,-3.77 -5.34,-7.38 -7.88,-11.16c-1.23,-1.65 -0.68,-3.77 -0.69,-5.67c-0.36,-0.12 -1.07,-0.37 -1.43,-0.5c0.19,-0.46 0.57,-1.4 0.76,-1.86z" fill="#a5772b"/>
   <path id="svg_279" d="m924.27,86.85c1.57,0.01 3.14,0.02 4.73,0.03c0.31,0.26 0.95,0.79 1.26,1.06c5.59,4.41 9.51,10.32 13.09,16.39c0.19,0.41 0.57,1.24 0.76,1.66l0.8,-0.01c0.26,0.52 0.78,1.56 1.04,2.07c0.12,0.44 0.35,1.31 0.47,1.74l0.84,0.18c-0.96,1.26 -0.79,3.52 0.93,4.03c-0.65,1.98 -0.99,4.49 0.76,6.03c-0.45,1.63 -0.41,3.39 0.27,4.96c-1.58,-0.09 -2.26,1.51 -2.47,2.79c-0.04,0.1 -0.12,0.3 -0.15,0.4c-2.3,1.64 -2.51,4.74 -4.63,6.51c-4.91,-5.36 -8.14,-11.97 -11.17,-18.5c-0.1,-1.45 -0.72,-2.83 -1.97,-3.62c-2.41,-5.38 -4.27,-11.04 -5.79,-16.74c-1.02,-2.79 0.31,-5.57 1,-8.26l0.23,-0.72z" fill="#a5772b"/>
   <path id="svg_280" d="m949.16,95.87c2.52,0.84 4.87,2.16 6.85,3.95c3.16,6.68 4.58,13.97 6.57,21.04c0.11,0.58 0.34,1.76 0.45,2.35c0.39,2.64 0.5,5.44 1.87,7.82c5.81,9.9 7.62,21.44 9.96,32.51c2.06,4.23 1.98,8.92 1.01,13.42c-4.02,-0.5 -7.86,-1.88 -11.78,-2.81c-0.17,-2.77 -0.49,-5.53 -0.77,-8.29c0.16,-1.36 -0.33,-2.29 -1.47,-2.78c0.06,-1.12 -0.19,-2.17 -0.74,-3.14c-0.56,-3.24 -1.4,-6.5 -3.29,-9.25c-0.22,-0.2 -0.68,-0.59 -0.9,-0.78c-0.23,-0.2 -0.69,-0.6 -0.92,-0.8c-0.21,-0.26 -0.62,-0.8 -0.83,-1.07c-0.15,-0.36 -0.46,-1.08 -0.62,-1.44c-0.09,-0.2 -0.27,-0.61 -0.36,-0.82c1.31,-1.7 1.25,-3.92 1.09,-5.96c-0.78,-2.39 -3.82,-2.89 -4.87,-5.1c-1.21,-2.25 -2.2,-4.62 -3.57,-6.77l-0.09,-0.17c1.66,0.3 2.46,-1.39 2.47,-2.79c1.14,-1.5 1.52,-3.77 -0.27,-4.96c0.56,-2.04 0.25,-4.18 -0.76,-6.03c0.17,-1.42 -0.08,-2.86 -0.93,-4.03c-0.33,-0.48 -0.98,-1.44 -1.31,-1.92c-0.26,-0.51 -0.78,-1.55 -1.04,-2.07l-0.15,-0.88c-0.1,-0.49 -0.29,-1.46 -0.38,-1.95c2.23,-1.98 4.83,-3.96 4.78,-7.28z" fill="#a5772b"/>
   <path id="svg_281" d="m849.6,104.26c0.05,0.19 0.16,0.58 0.21,0.77c-0.05,-0.19 -0.16,-0.58 -0.21,-0.77z" fill="#a5772b"/>
   <path id="svg_282" d="m860.34,104.7c0.77,0.08 1.48,0.35 2.12,0.81c5.17,4.26 9,9.83 13.04,15.12c0.31,0.4 0.94,1.19 1.25,1.59l0.06,1.28l0.02,0.55l0.59,0.55c2.6,2.53 3.93,6 5.95,8.97c1.98,2.93 3.5,6.18 4.21,9.66c-1.45,2.6 -5.07,0.26 -7.41,1.38c-0.65,-0.82 -1.47,-1.43 -2.44,-1.84c-0.14,-0.13 -0.42,-0.38 -0.56,-0.51c-0.51,-1.26 -1.6,-2.28 -2.99,-2.3c-2.42,-1.9 -5.11,-3.84 -8.36,-3.54c-0.21,-0.34 -0.61,-1.03 -0.81,-1.38l-0.82,0.2c-0.18,-0.57 -0.54,-1.7 -0.72,-2.27c-0.33,-0.55 -1,-1.65 -1.33,-2.2c-1.67,-3.54 -3.41,-7.05 -4.95,-10.64c0.13,-1.63 0,-3.37 -1.12,-4.65c0.1,-1.52 0.13,-3.05 0.1,-4.57c2.12,0.65 1.96,-3.24 -0.05,-1.85c0.02,-0.71 0.07,-2.12 0.1,-2.83c1.36,-0.53 2.72,-1.06 4.12,-1.53z" fill="#a5772b"/>
   <path id="svg_283" d="m846.22,108.96c0.9,-1.52 2.01,-2.96 4,-2.96c0.13,0.16 0.37,0.47 0.49,0.63c0.96,1.7 1.1,4.75 3.44,5.24c-0.02,1.51 0.44,2.92 1.92,3.61c-0.73,1.2 -0.9,2.64 -0.47,3.98c-0.04,5.51 0.47,11.01 0.57,16.52c0.05,0.74 0.16,2.23 0.22,2.98c-1.62,5.61 -0.02,11.74 -2.62,17.12c-3.25,-0.63 -5.4,-3.6 -8.7,-4.32c-0.13,-0.58 -0.39,-1.76 -0.52,-2.34c-0.96,-0.24 -1.91,-0.47 -2.85,-0.71c-3.78,-10.26 -2.34,-21.42 -0.36,-31.89c0.07,-0.18 0.21,-0.55 0.28,-0.73c1.42,-2.22 2.74,-4.5 4.28,-6.64l0.6,0.17l0.26,-0.44l-0.54,-0.22z" fill="#a5772b"/>
   <path id="svg_284" d="m853.7,109.16l0.31,0.35l-0.14,0.27c-0.04,-0.15 -0.13,-0.46 -0.17,-0.62z" fill="#a5772b"/>
   <path id="svg_285" d="m854.15,111.87c0.08,-0.09 0.25,-0.26 0.33,-0.34c-0.08,0.08 -0.25,0.25 -0.33,0.34z" fill="#a5772b"/>
   <path id="svg_286" d="m1002.5,115.57c0.45,-0.24 1.34,-0.73 1.78,-0.97c9.98,9.44 15.8,22.16 22.36,34c1.43,2.04 0.97,4.66 1,7.01c-2.42,-0.36 -4.83,-0.9 -7.27,-0.91c-3.42,-1.48 -4.35,-5.6 -7.28,-7.74c-1.94,-2.22 -4.78,-2.99 -7.63,-2.45c-0.24,-0.31 -0.74,-0.93 -0.98,-1.24c-0.76,-1.45 -1.39,-2.96 -2,-4.47c-0.09,-1.46 -0.82,-2.75 -1.71,-3.86c-0.3,-0.44 -0.91,-1.31 -1.21,-1.75c-0.02,-0.42 -0.04,-1.26 -0.06,-1.68l-0.87,-0.15c-0.1,-4.62 -1.65,-9.85 1.66,-13.77c0.19,-0.17 0.57,-0.51 0.76,-0.68c0.2,-0.18 0.59,-0.55 0.79,-0.73c0.16,-0.16 0.49,-0.46 0.66,-0.61z" fill="#a5772b"/>
   <path id="svg_287" d="m894.73,126.89c3.99,-1.59 6.65,1.96 8.32,5.03c3.33,6.31 1.64,13.75 3.47,20.45l0.34,0.77c0.13,0.53 0.37,1.59 0.49,2.12l-0.28,0.45c0.19,-0.02 0.57,-0.05 0.75,-0.06c1.88,-0.21 0.97,-2.78 -0.44,-2.99c0.43,-0.46 1.29,-1.38 1.72,-1.84l0.15,0.92c0.47,0.13 1.41,0.4 1.89,0.53c0.8,1.64 2.49,2.42 4.14,2.99c0.15,0.19 0.43,0.57 0.57,0.75l0.15,0.56c1.9,13.03 3.1,26.19 2.54,39.37c-0.22,1.83 -0.53,3.69 -1.28,5.38c-2.02,0.78 -3.08,-1.24 -4.2,-2.42c-1.71,-0.52 -3.58,-0.79 -5.12,-1.68c-6.17,-6.17 -5.23,-15.54 -5.91,-23.5l-0.08,-0.55c1.34,0.05 2.12,-0.63 2.34,-2.03c3.1,-3.46 2.41,-8.19 2.32,-12.47c3.29,0.22 -0.15,-3.28 0,0c-0.01,4.28 -0.44,8.57 -2.32,12.47c-1.39,-0.1 -2.17,0.57 -2.34,2.03l-0.57,0.1c-3.6,-0.2 -6.7,-2.36 -8.36,-5.5c0.35,-2.09 -0.03,-4.39 -1.91,-5.64c0.47,-1.28 0.14,-2.32 -0.99,-3.12c0.01,-0.44 0.03,-1.33 0.04,-1.77c-0.55,-4.4 -0.44,-8.84 0.14,-13.23c0.44,-4.8 0.16,-10.36 3.93,-13.98c0.1,-0.13 0.3,-0.39 0.4,-0.52l0.06,-0.73l0.04,-1.89z" fill="#a5772b"/>
   <path id="svg_288" d="m827.25,131.75c1.05,-1.31 2.51,-2.17 4.05,-2.83c0.31,0.09 0.93,0.28 1.25,0.37c-0.05,0.42 -0.14,1.27 -0.18,1.69c2.71,1.2 3.72,3.96 5.2,6.29c1.74,4.09 1.91,8.6 2.69,12.93c-0.97,1.42 -1.32,3.13 -1.09,4.82c-0.09,0.61 -0.25,1.83 -0.34,2.44c-0.02,0.15 -0.08,0.47 -0.11,0.62c-0.15,0.74 -0.46,2.2 -0.61,2.94c0.29,0.53 0.88,1.61 1.17,2.14c0.05,0.13 0.15,0.4 0.2,0.53l0.17,0.47c-1.52,3.85 -2.97,7.72 -3.99,11.73c-1.28,-0.09 -2.55,-0.18 -3.81,-0.26c-1.36,-1.63 -2.82,-3.15 -4.33,-4.61c-0.63,-3.13 -2.55,-5.86 -2.85,-9.08c-0.92,-4.37 -0.02,-8.87 -0.95,-13.21c-0.9,-5.94 0.3,-11.92 3.53,-16.98m0.72,1.63c-1.58,3.07 3.21,0.21 0,0z" fill="#a5772b"/>
   <path id="svg_289" d="m856.84,135.55c0.33,-0.22 0.99,-0.66 1.32,-0.88c0.76,0 2.26,-0.02 3.02,-0.03c0.75,0.15 2.26,0.45 3.01,0.6l0.09,0.77c0.39,0.1 1.15,0.31 1.54,0.41c2.64,1.49 5.4,2.77 8.36,3.54c-0.44,1.89 1.55,2.35 2.99,2.3c0.14,0.13 0.42,0.38 0.56,0.51c0.11,0.59 0.34,1.77 0.45,2.36l0.73,0.59c3.95,3.27 7.19,7.28 10.32,11.32c0.22,0.49 0.67,1.47 0.89,1.97c-0.58,1.4 -0.25,2.44 0.99,3.12c-0.11,1.97 0.16,4.05 1.38,5.68c-2.62,2.82 -2.21,6.81 -3.32,10.22c1.54,6.2 3.84,12.52 2.93,19.01c-0.7,1.99 -1.57,3.93 -2.09,5.97c-3.87,0.82 -4.75,5.49 -8.37,6.37c-0.6,-1.56 -1.64,-2.87 -2.69,-4.13c-0.51,-1.03 -1.01,-2.06 -1.49,-3.1c0.55,-3.65 -0.79,-7.18 -1.64,-10.68c-1.55,-5.6 -2.75,-11.29 -3.56,-17.04c0.35,-2.82 0.56,-5.66 0.42,-8.49c1.93,-2.01 2.26,-5.02 4.24,-6.98c0.08,1.48 0.87,2.27 2.37,2.38c0.15,0.17 0.45,0.51 0.6,0.68c0.14,0.18 0.43,0.53 0.57,0.71c0.83,2.39 2.68,4.19 4.78,5.53c0.14,0.16 0.41,0.5 0.55,0.67c0.29,0.52 0.88,1.57 1.17,2.09c0.26,0.49 0.77,1.47 1.03,1.95c-0.19,1.47 0.16,1.83 1.07,1.11c-0.27,-0.28 -0.8,-0.83 -1.07,-1.11c-0.26,-0.48 -0.77,-1.46 -1.03,-1.95c-0.29,-0.52 -0.88,-1.57 -1.17,-2.09c-0.14,-0.17 -0.41,-0.51 -0.55,-0.67c-0.1,-0.65 -0.29,-1.93 -0.38,-2.58c-1.32,-0.81 -2.58,-1.72 -3.79,-2.65l-0.61,-0.3c-0.14,-0.18 -0.43,-0.53 -0.57,-0.71c-0.15,-0.17 -0.45,-0.51 -0.6,-0.68c-0.32,-1.29 -1.11,-2.08 -2.37,-2.38c-1.88,-1.34 -3.56,1.4 -5.59,0.92c-3.54,-3.05 -6.23,-6.9 -8.96,-10.66c-2.16,-3.16 -4.6,-6.35 -5.08,-10.28c0.82,-1.02 0.89,-2.75 -0.45,-3.39z" fill="#a5772b"/>
   <path id="svg_290" d="m1009.19,147.19c3.63,2.62 7.69,5.35 10.12,9.37c0.94,1.95 1.72,3.98 2.52,6c0.44,2.85 1.16,5.63 1.85,8.43c-0.37,4.17 -0.55,8.38 0.14,12.54c-0.38,3.04 -2.19,6.48 -5.56,6.76c-0.3,1.76 -0.13,4.44 -2.37,4.92c-2.21,0.3 -2.02,-2.47 -2.37,-3.89c-3.8,-4.68 -2.19,-11.58 -5.57,-16.6c-2.16,-4.41 -2.38,-9.39 -2.46,-14.22c-0.05,-4.58 -0.11,-10.16 3.7,-13.31z" fill="#a5772b"/>
   <path id="svg_291" d="m952.2,147.6c0.74,0.11 2.23,0.33 2.97,0.44c0.21,0.27 0.62,0.81 0.83,1.07c0.23,0.2 0.69,0.6 0.92,0.8c0.22,0.19 0.68,0.58 0.9,0.78c-0.28,0.49 -0.83,1.48 -1.11,1.98c-0.15,-0.18 -0.45,-0.55 -0.59,-0.74c-0.28,-0.25 -0.83,-0.75 -1.11,-1c-0.16,-0.16 -0.48,-0.46 -0.65,-0.61c-0.54,-0.43 -1.63,-1.31 -2.17,-1.74l0.01,-0.98z" fill="#a5772b"/>
   <path id="svg_292" d="m950.4,149.13c0.44,-0.14 1.34,-0.41 1.79,-0.55c0.54,0.43 1.63,1.31 2.17,1.74c0.17,0.15 0.49,0.45 0.65,0.61c0.28,0.25 0.83,0.75 1.11,1c0.14,0.19 0.44,0.56 0.59,0.74c1.3,2.38 2.32,4.89 3.56,7.31c-0.69,1.31 0.1,2.9 1.58,3.1c-0.5,1.39 -0.01,2.32 1.47,2.78c-0.1,2.64 -0.39,5.28 -0.51,7.93c-0.23,8.08 2.32,16.25 -0.02,24.21c-3.35,-0.65 -6.33,-2.43 -9.61,-3.29c-4.57,-3.19 -6.29,-9.07 -6.62,-14.4c-0.16,-2.54 -0.26,-5.09 -0.23,-7.64c0.28,-4.71 1.09,-9.41 0.42,-14.14c0.9,-3.24 2.03,-6.44 3.65,-9.4z" fill="#a5772b"/>
   <path id="svg_293" d="m909.1,150.82c0.2,-0.23 0.6,-0.71 0.8,-0.95c1.13,0.45 2.27,0.89 3.42,1.32l-0.18,0.54c-0.5,0.13 -1.5,0.41 -2,0.54c-0.51,-0.36 -1.53,-1.08 -2.04,-1.45z" fill="#a5772b"/>
   <path id="svg_294" d="m913.14,151.73l0.48,0.04c-0.12,-0.01 -0.36,-0.03 -0.48,-0.04z" fill="#a5772b"/>
   <path id="svg_295" d="m842.14,156.15c1.83,1.53 4.11,2.06 6.47,2.02c2.83,0.36 4.47,2.96 6.22,4.92c5.62,6.65 11.21,13.75 13.57,22.29c0.87,3.76 0.06,7.65 -2.67,10.43c-0.3,1.75 -0.67,3.5 -1.72,4.96c-6.66,-4.62 -9.85,-12.37 -14.76,-18.55c-2.37,-3.43 -4.67,-6.93 -6.27,-10.79c-1.18,-4.45 -2.84,-8.84 -2.42,-13.53c0.4,-0.44 1.18,-1.31 1.58,-1.75z" fill="#a5772b"/>
   <path id="svg_296" d="m840.16,157.2l0.54,0.11l-0.14,0.59l-0.62,-0.08l0.22,-0.62z" fill="#a5772b"/>
   <path id="svg_297" d="m839.03,157.79l0.91,0.03c1.24,2.18 -2.16,2.13 -0.91,-0.03z" fill="#a5772b"/>
   <path id="svg_298" d="m872.49,161.23c1.97,0.95 1.52,3.37 0.19,4.71l-0.8,-0.12c0.09,-1.55 0.39,-3.07 0.61,-4.59z" fill="#a5772b"/>
   <path id="svg_299" d="m1027.98,168.8c0.76,0.53 1.54,1.07 2.33,1.62c0.4,-0.4 0.83,-0.79 1.26,-1.18c1.27,3.26 4.46,5.1 6.22,8.05c3.03,7.17 5.49,14.78 5.01,22.67c-0.08,3.87 -1.09,7.64 -1.34,11.49c-1.4,0.61 -2.81,1.21 -4.2,1.81c-0.49,0.92 -0.96,1.86 -1.4,2.81l0.28,-0.85c-0.35,-0.3 -1.03,-0.91 -1.37,-1.21c0.81,-1.32 0.44,-2.99 -0.62,-4.02c0.18,-1.32 -0.24,-2.38 -1.25,-3.19l-0.1,-0.42c-0.66,-3.37 -1.51,-6.75 -3.15,-9.79c-0.15,-0.18 -0.44,-0.54 -0.58,-0.72c-0.29,-0.21 -0.86,-0.63 -1.14,-0.85c-0.2,-0.13 -0.58,-0.39 -0.77,-0.53c-0.31,-0.52 -0.92,-1.57 -1.23,-2.09c-0.47,-2.38 -0.93,-4.77 -1.55,-7.11c0.06,-0.69 0.18,-2.07 0.24,-2.76c-0.43,-4.87 0.77,-9.6 3.36,-13.73z" fill="#a5772b"/>
   <path id="svg_300" d="m1022.13,192.96c1.22,-0.18 2.16,0.23 2.83,1.23c-1.59,0.65 -2.53,0.24 -2.83,-1.23z" fill="#a5772b"/>
   <path id="svg_301" d="m1024.96,194.19c0.55,0.08 1.65,0.23 2.2,0.3c0.19,0.14 0.57,0.4 0.77,0.53c0.28,0.22 0.85,0.64 1.14,0.85c0.14,0.18 0.43,0.54 0.58,0.72l0.01,1.16c-0.23,0.2 -0.68,0.6 -0.9,0.8c-0.16,-0.13 -0.48,-0.39 -0.64,-0.52c-0.24,-0.22 -0.71,-0.65 -0.95,-0.86c-0.28,-0.31 -0.84,-0.92 -1.12,-1.22c-0.08,-0.14 -0.24,-0.4 -0.33,-0.53l-0.76,-1.23z" fill="#a5772b"/>
   <path id="svg_302" d="m1021.38,195.21c1.44,0.04 2.88,0.11 4.34,0.21c0.09,0.13 0.25,0.39 0.33,0.53c0.28,0.3 0.84,0.91 1.12,1.22c0.24,0.21 0.71,0.64 0.95,0.86c0.16,0.13 0.48,0.39 0.64,0.52c1.49,2.39 2.43,5.06 3.68,7.58c0.11,0.17 0.34,0.5 0.46,0.67c-0.58,1.52 -0.17,2.59 1.25,3.19c-0.96,1.28 -0.48,2.99 0.62,4.02c0.27,0.51 0.82,1.54 1.09,2.06c-0.72,7.35 2.6,14.37 2.71,21.68c-0.43,1.6 -0.49,3.87 -1.93,4.84c-3.18,-0.57 -6.1,-2.35 -9.25,-3.14c-0.19,-0.51 -0.56,-1.53 -0.75,-2.04c-0.56,-0.2 -1.7,-0.6 -2.27,-0.8c-1.39,-2.74 -1.48,-6.08 -3.61,-8.42c-0.17,-3.11 -1.31,-6.05 -1.62,-9.11c0.6,-6.11 -0.48,-12.27 0.56,-18.34c0.6,-1.83 1.19,-3.67 1.68,-5.53z" fill="#a5772b"/>
  </g>
  <g id="#b48c43ff">
   <path id="svg_303" d="m868.87,62.46c3.01,-0.86 6.13,-0.96 9.24,-0.58c0.6,0.63 1.82,1.89 2.43,2.52c-2.76,0.32 -5.53,0.52 -8.29,0.59c0.09,0.52 0.28,1.56 0.37,2.08l-0.59,-0.01c-0.48,-0.02 -1.44,-0.04 -1.92,-0.05c-0.17,-0.61 -0.5,-1.82 -0.67,-2.43c-0.14,-0.53 -0.43,-1.59 -0.57,-2.12z" fill="#b48c43"/>
  </g>
  <g id="#e1d1b4ff">
   <path id="svg_304" d="m872.03,67.06l0.59,0.01c0.44,1.29 0.42,2.54 -0.06,3.75c-1.49,-0.22 -1.03,-2.75 -0.53,-3.76z" fill="#e1d1b4"/>
  </g>
  <g id="#9f794bff">
   <path id="svg_305" d="m950.28,71.4c0.14,0.13 0.44,0.4 0.59,0.53c-0.15,-0.13 -0.45,-0.4 -0.59,-0.53z" fill="#9f794b"/>
   <path id="svg_306" d="m950.87,71.93c0.23,0.22 0.7,0.68 0.94,0.9c-0.24,-0.22 -0.71,-0.68 -0.94,-0.9z" fill="#9f794b"/>
   <path id="svg_307" d="m951.81,72.83c0.19,0.19 0.57,0.57 0.76,0.75c-0.19,-0.18 -0.57,-0.56 -0.76,-0.75z" fill="#9f794b"/>
   <path id="svg_308" d="m1029.86,157.05l0.93,-0.01c-0.01,3.58 0.05,7.16 0.21,10.74c-0.29,-0.2 -0.88,-0.59 -1.18,-0.79c-0.06,-3.31 0.07,-6.63 0.04,-9.94z" fill="#9f794b"/>
   <path id="svg_309" d="m945.85,159.05l0.9,-0.52c0.67,4.73 -0.14,9.43 -0.42,14.14l-1.49,0.07c0.87,-4.5 1.23,-9.11 1.01,-13.69z" fill="#9f794b"/>
   <path id="svg_310" d="m960.27,159.98l0.84,-0.04c0.55,0.97 0.8,2.02 0.74,3.14c-1.48,-0.2 -2.27,-1.79 -1.58,-3.1z" fill="#9f794b"/>
   <path id="svg_311" d="m961.85,163.08c1.14,0.49 1.63,1.42 1.47,2.78c-1.48,-0.46 -1.97,-1.39 -1.47,-2.78z" fill="#9f794b"/>
   <path id="svg_312" d="m963.32,165.86c0.28,2.76 0.6,5.52 0.77,8.29l-1.28,-0.36c0.12,-2.65 0.41,-5.29 0.51,-7.93z" fill="#9f794b"/>
   <path id="svg_313" d="m1007.95,174.72c3.38,5.02 1.77,11.92 5.57,16.6c0.35,1.42 0.16,4.19 2.37,3.89c2.24,-0.48 2.07,-3.16 2.37,-4.92c3.37,-0.28 5.18,-3.72 5.56,-6.76l0.8,-1c-0.06,0.69 -0.18,2.07 -0.24,2.76c-0.26,1.08 -0.53,2.17 -0.8,3.25c-1.11,0.56 -2.19,1.18 -3.16,1.92c-1.47,1.42 -1.26,3.73 -2.69,5.13c-1.37,0.26 -2.75,0.19 -4.11,0.18c0.7,-2.09 -1.8,-3.08 -2.74,-4.53c-1.53,-5.39 -2.24,-10.97 -2.93,-16.52z" fill="#9f794b"/>
   <path id="svg_314" d="m1037.85,175.87c6.65,10.83 7.41,24.48 4.47,36.61c-1.41,0.6 -2.84,1.18 -4.24,1.76c-1.39,2.84 -1.92,5.96 -0.79,8.99c0.97,6.49 3.97,13.57 0.78,19.88c-2.44,1.39 -5.17,-0.51 -7.34,-1.58c-0.38,-0.37 -1.14,-1.1 -1.52,-1.47c-0.64,0.06 -1.91,0.18 -2.55,0.24c-0.71,-0.95 -1.99,-1.69 -1.85,-3.04c-2.46,-0.1 -4.06,-3.7 -2.97,-5.82c-0.68,-0.75 -1.37,-1.49 -2.04,-2.23c0.34,-1.8 0.57,-3.81 -0.63,-5.37c-2.28,-2.91 0.28,-6.6 -0.38,-9.87c-0.6,-4.86 -0.15,-9.71 0.15,-14.56l0.78,0.58l-0.02,0.75c-1.04,6.07 0.04,12.23 -0.56,18.34c0.31,3.06 1.45,6 1.62,9.11c2.13,2.34 2.22,5.68 3.61,8.42c0.57,0.2 1.71,0.6 2.27,0.8c0.19,0.51 0.56,1.53 0.75,2.04c3.15,0.79 6.07,2.57 9.25,3.14c1.44,-0.97 1.5,-3.24 1.93,-4.84c-0.11,-7.31 -3.43,-14.33 -2.71,-21.68c0.44,-0.95 0.91,-1.89 1.4,-2.81c1.39,-0.6 2.8,-1.2 4.2,-1.81c0.25,-3.85 1.26,-7.62 1.34,-11.49c0.48,-7.89 -1.98,-15.5 -5.01,-22.67l0.06,-1.42z" fill="#9f794b"/>
   <path id="svg_315" d="m1032.44,206.13l0.36,0.25l0.1,0.42c-0.12,-0.17 -0.35,-0.5 -0.46,-0.67z" fill="#9f794b"/>
   <path id="svg_316" d="m1032.9,206.8c1.01,0.81 1.43,1.87 1.25,3.19c-1.42,-0.6 -1.83,-1.67 -1.25,-3.19z" fill="#9f794b"/>
   <path id="svg_317" d="m1034.15,209.99c1.06,1.03 1.43,2.7 0.62,4.02c-1.1,-1.03 -1.58,-2.74 -0.62,-4.02z" fill="#9f794b"/>
   <path id="svg_318" d="m1034.77,214.01c0.34,0.3 1.02,0.91 1.37,1.21l-0.28,0.85c-0.27,-0.52 -0.82,-1.55 -1.09,-2.06z" fill="#9f794b"/>
  </g>
  <g id="#d3d3d3d3">
   <path id="svg_320" d="m918.44,90.14c1.39,-0.27 1.88,0.3 1.48,1.72c-1.37,0.22 -1.87,-0.36 -1.48,-1.72z" opacity="0.83" fill="#d3d3d3"/>
  </g>
  <g id="#cbb388ff">
   <path id="svg_322" d="m887.26,93.21c1.4,-0.59 1.8,-0.15 1.19,1.32c-1.43,0.6 -1.83,0.16 -1.19,-1.32z" fill="#cbb388"/>
  </g>
  <g id="#b49b6aff">
   <path id="svg_323" d="m956.64,94.71c0.6,-0.14 1.79,-0.44 2.39,-0.59c0.5,0.46 1,0.93 1.52,1.39c0.61,-0.11 1.81,-0.33 2.41,-0.44c-1.51,2.54 -2.61,5.33 -2.77,8.3c-0.72,-1.98 -0.28,-4.62 -2.13,-5.99c2.01,-0.64 -0.48,-2.42 -1.42,-2.67z" fill="#b49b6a"/>
  </g>
  <g id="#d5c2a2ff">
   <path id="svg_324" d="m947.26,98.22c0.57,0.54 0.57,0.54 0,0z" fill="#d5c2a2"/>
  </g>
  <g id="#24242424">
   <path id="svg_325" d="m1148.5,98.51c1.81,0.38 4.71,-0.85 5.48,1.49c-1.76,0.27 -3.55,0.33 -5.31,0.38c-0.04,-0.47 -0.13,-1.4 -0.17,-1.87z" opacity="0.14" fill="#242424"/>
  </g>
  <g id="#8c5623ff">
   <path id="svg_326" d="m589.58,101.52c21.49,-0.55 42.95,0.95 64.42,1.32c7.82,-0.15 15.62,0.59 23.42,1.08c21.02,3.75 43.05,7.21 61.07,19.52c9.85,6.17 17.76,15.97 20.16,27.5c3.42,15.27 2.88,31.54 -2.29,46.37c-5.84,17.78 -18.26,32.58 -32.07,44.84c-0.86,1.48 0.72,2.75 1.39,3.93c9.55,14.27 21.05,27.06 31.23,40.85c8.95,11.26 17.04,23.16 25.69,34.65c0.75,0.85 1.16,1.9 1.3,3.05c-16.78,15.94 -33.4,32.06 -50.09,48.1c-0.66,0.71 -1.47,1.11 -2.43,1.2c-23.2,-44.22 -46.68,-88.29 -70.17,-132.35c15.45,-9.96 26.97,-25.82 31.53,-43.64c1.72,-7.85 2.04,-16.21 -0.61,-23.9c-2.56,-7.34 -7.74,-14.04 -14.92,-17.31c-7.45,-3.46 -15.79,-4.51 -23.94,-4.44c0.09,70.12 1.17,140.23 1.51,210.35c-21.39,-0.21 -42.8,0.12 -64.19,-0.16c0.09,-56.17 0.14,-112.34 -0.25,-168.5c-0.15,-8.02 0.07,-16.05 -0.5,-24.05c-0.02,-22.81 -0.18,-45.61 -0.26,-68.41z" fill="#8c5623"/>
   <path id="svg_327" d="m28.21,112.96c0.09,-3.87 -0.25,-7.75 0.24,-11.6c20.18,1.29 40.43,0.21 60.6,1.77c7.01,0.58 14.11,-0.01 21.05,1.38c10.5,1.93 21.15,3.37 31.28,6.92c17.45,5.82 35.21,15.02 44.86,31.38c9.11,14.21 11.55,31.68 9.64,48.22c-2.22,26.01 -14.3,50.77 -32.45,69.38c-8.11,7.73 -16.8,14.92 -26.45,20.66c-13.79,7.81 -28.63,14.46 -44.46,16.6c-0.42,21.58 -0.13,43.19 -0.14,64.78c-21.37,0.33 -42.75,0 -64.12,0.17c0.07,-38.54 1.25,-77.07 0.98,-115.6c-0.22,-44.69 -1.22,-89.37 -1.03,-134.06m63.51,40.02c0.02,18.68 0.11,37.35 0.09,56.03c0.69,12.27 0.33,24.57 0.51,36.86c1.23,-0.15 2.5,-0.17 3.69,-0.59c11.57,-4.41 21.51,-12.75 28.03,-23.26c5.55,-7.82 7.9,-17.53 7.72,-27.03c0.06,-10.04 -2.34,-20.78 -9.56,-28.17c-7.93,-8.35 -19.26,-12.46 -30.48,-13.84z" fill="#8c5623"/>
   <path id="svg_328" d="m1095.99,153.57c10.53,0.44 21,-1.02 31.51,-1.31c0.24,15.73 0.61,31.44 0.99,47.16c-9.51,0.5 -19.07,-0.27 -28.51,1.14c-6.6,0.33 -13.22,0.12 -19.81,0.1c-0.27,12.99 -0.2,26 -0.04,39c7.98,-0.14 15.89,-1.33 23.89,-1.13c5.64,0.11 11.18,-1.13 16.81,-1.5c0,15.25 0.6,30.49 0.59,45.75c-13.78,-0.09 -27.56,-0.23 -41.32,-0.96c-0.1,11.61 -0.2,23.23 0.05,34.83c6.3,-0.23 12.59,0.38 18.88,0.49c10.72,0.39 21.39,-1.13 32.12,-0.8c0.35,16.38 1,32.73 1.34,49.1c-23.81,-0.63 -47.6,-1.37 -71.4,-1.98c-10.31,0.12 -20.55,-1.01 -30.85,-0.81c0.07,-34.91 0.31,-69.81 0.33,-104.72c0.09,-5.47 -0.26,-10.95 0.16,-16.4c2.17,1.07 4.9,2.97 7.34,1.58c3.19,-6.31 0.19,-13.39 -0.78,-19.88c-1.13,-3.03 -0.6,-6.15 0.79,-8.99c1.4,-0.58 2.83,-1.16 4.24,-1.76c2.94,-12.13 2.18,-25.78 -4.47,-36.61c-1.7,-3.13 -3.85,-6.11 -6.85,-8.09c-0.16,-3.58 -0.22,-7.16 -0.21,-10.74c12.06,-0.9 24.17,-1.16 36.2,-2.34c9.67,-0.28 19.3,-1.54 29,-1.13z" fill="#8c5623"/>
   <path id="svg_329" d="m1002.66,152.03c0.79,1.12 1.45,2.35 1.84,3.69c-0.14,1.68 -0.04,3.38 0.99,4.78c0.08,4.83 0.3,9.81 2.46,14.22c0.69,5.55 1.4,11.13 2.93,16.52c1.23,5.74 2.31,11.52 3.12,17.34c-14.26,2.73 -28.3,7.74 -39.99,16.52c-9.18,6 -16.55,14.53 -21.7,24.16c-6.79,12.85 -7.86,29.16 -0.53,42.02c4.34,8.42 12.25,14.38 20.76,18.17c8.31,3.49 17.42,4.88 26.41,4.79c6.45,-0.36 12.86,-1.33 19.32,-1.67c0.82,17.44 1.31,34.91 2.03,52.33c-21.3,3.48 -43.51,3.53 -64.31,-2.79c-11.81,-3.79 -23.23,-9.23 -32.97,-16.97c-15.78,-11.77 -26.23,-29.9 -29.99,-49.1c-2.21,-12.91 -1.65,-26.21 1.01,-39c4.51,-20.56 15.21,-39.33 28.71,-55.3c5.1,-6.22 11.4,-11.25 17.27,-16.69c2,-1.81 4.24,-3.32 6.54,-4.74c0.33,5.33 2.05,11.21 6.62,14.4c3.28,0.86 6.26,2.64 9.61,3.29c2.34,-7.96 -0.21,-16.13 0.02,-24.21l1.28,0.36c3.92,0.93 7.76,2.31 11.78,2.81c0.97,-4.5 1.05,-9.19 -1.01,-13.42c3.31,-1.78 6.89,-2.99 10.31,-4.56c3.02,3.4 2.67,8.56 5.76,11.92c1.86,2.49 5.44,1.57 7.72,3.4c1.11,0.62 2.32,1.93 3.66,0.99c1.56,-2.88 1.99,-6.44 0.85,-9.55c-1.44,-4.43 -0.62,-9.16 -0.5,-13.71z" fill="#8c5623"/>
   <path id="svg_330" d="m208.37,157.52c17.78,-0.4 35.58,-0.01 53.37,-0.2c-1.18,26.01 -1.13,52.06 -1,78.09c19.8,-1.95 39.59,-3.82 59.38,-5.85c-0.32,-24.08 0.11,-48.16 -0.86,-72.23c17.48,0.05 34.95,0.03 52.43,0.01c-0.64,19.86 -0.38,39.73 -0.68,59.6c-0.67,28.7 -0.15,57.42 0.26,86.12c0.16,19.85 0.28,39.7 0.41,59.55c-17.48,-0.05 -34.95,-0.06 -52.42,0.01c0.2,-28.03 0.72,-56.06 0.86,-84.09c-19.76,1.76 -39.54,3.7 -59.27,5.79c-0.56,26.11 0.38,52.21 0.89,78.32c-17.48,-0.12 -34.97,-0.05 -52.46,-0.04c0.01,-47.87 0.4,-95.75 -0.01,-143.62c-1.07,-20.46 -0.39,-40.98 -0.9,-61.46z" fill="#8c5623"/>
   <path id="svg_331" d="m396.38,157.36c17.47,-0.02 34.94,0.02 52.41,-0.02c-0.06,19.56 -0.41,39.12 -0.61,58.68c-1.29,48.86 0.66,97.72 0.59,146.6c-17.47,-0.07 -34.93,-0.04 -52.4,-0.02c0.68,-68.41 0.48,-136.83 0.01,-205.24z" fill="#8c5623"/>
   <path id="svg_332" d="m472.35,157.46c17.69,-0.14 35.4,-0.24 53.09,0.05c-1.44,42.45 -1.26,84.95 -1.34,127.44c-0.09,9.41 -0.38,18.83 -0.02,28.24c16.98,0.06 33.94,-1.27 50.92,-0.86c-0.19,17.67 -0.07,35.34 -0.06,53.01c-24.33,-0.43 -48.63,-1.78 -72.96,-2.02c-9.76,-0.95 -19.58,-0.54 -29.36,-0.49c-0.04,-42.94 0.92,-85.91 0.3,-128.86c-0.12,-25.51 -0.19,-51.01 -0.57,-76.51z" fill="#8c5623"/>
  </g>
  <g id="#d2cbacff">
   <path id="svg_333" d="m846.22,108.96l0.54,0.22l-0.26,0.44l-0.6,-0.17l0.32,-0.49z" fill="#d2cbac"/>
  </g>
  <g id="#c1a77cff">
   <path id="svg_334" d="m856.12,109.06c2.01,-1.39 2.17,2.5 0.05,1.85c-0.01,-0.47 -0.04,-1.39 -0.05,-1.85z" fill="#c1a77c"/>
  </g>
  <g id="#fffffeff">
   <path id="svg_335" d="m885.89,108.58l0.69,0.22c0.73,1.93 1.32,3.92 2,5.88c-1.34,0.62 -2.67,1.24 -3.98,1.88c-0.59,-2.77 0.09,-5.47 1.29,-7.98z" fill="#fffffe"/>
  </g>
  <g id="#cdb489ff">
   <path id="svg_336" d="m827.97,133.38c3.21,0.21 -1.58,3.07 0,0z" fill="#cdb489"/>
  </g>
  <g id="#d9cbb9ff">
   <path id="svg_337" d="m933.22,135.2c0.61,0.59 0.61,0.59 0,0z" fill="#d9cbb9"/>
  </g>
  <g id="#b1b1b1b1">
   <path id="svg_338" d="m886.06,147.38c3.22,0.31 -1.57,3.03 0,0z" opacity="0.69" fill="#b1b1b1"/>
  </g>
  <g id="#ac8444ff">
   <path id="svg_339" d="m952.2,147.6c0.39,-0.33 1.16,-0.99 1.55,-1.31l0.8,0.31c0.16,0.36 0.47,1.08 0.62,1.44c-0.74,-0.11 -2.23,-0.33 -2.97,-0.44z" fill="#ac8444"/>
   <path id="svg_340" d="m950.4,149.13c0.22,-0.37 0.67,-1.11 0.9,-1.48l0.9,-0.05l-0.01,0.98c-0.45,0.14 -1.35,0.41 -1.79,0.55z" fill="#ac8444"/>
   <path id="svg_341" d="m955.17,148.04c0.21,0.27 0.62,0.81 0.83,1.07c-0.21,-0.26 -0.62,-0.8 -0.83,-1.07z" fill="#ac8444"/>
   <path id="svg_342" d="m952.19,148.58c0.54,0.43 1.63,1.31 2.17,1.74c-0.54,-0.43 -1.63,-1.31 -2.17,-1.74z" fill="#ac8444"/>
   <path id="svg_343" d="m956,149.11c0.23,0.2 0.69,0.6 0.92,0.8c-0.23,-0.2 -0.69,-0.6 -0.92,-0.8z" fill="#ac8444"/>
   <path id="svg_344" d="m954.36,150.32c0.17,0.15 0.49,0.45 0.65,0.61c-0.16,-0.16 -0.48,-0.46 -0.65,-0.61z" fill="#ac8444"/>
   <path id="svg_345" d="m956.92,149.91c0.22,0.19 0.68,0.58 0.9,0.78c-0.22,-0.2 -0.68,-0.59 -0.9,-0.78z" fill="#ac8444"/>
   <path id="svg_346" d="m955.01,150.93c0.28,0.25 0.83,0.75 1.11,1c-0.28,-0.25 -0.83,-0.75 -1.11,-1z" fill="#ac8444"/>
   <path id="svg_347" d="m957.82,150.69c1.89,2.75 2.73,6.01 3.29,9.25l-0.84,0.04c-1.24,-2.42 -2.26,-4.93 -3.56,-7.31c0.28,-0.5 0.83,-1.49 1.11,-1.98z" fill="#ac8444"/>
   <path id="svg_348" d="m956.12,151.93c0.14,0.19 0.44,0.56 0.59,0.74c-0.15,-0.18 -0.45,-0.55 -0.59,-0.74z" fill="#ac8444"/>
  </g>
  <g id="#a57730ff">
   <path id="svg_349" d="m840.26,150.2c0.37,1.25 0.94,2.46 1.13,3.77c-0.56,0.27 -1.67,0.79 -2.22,1.05c-0.23,-1.69 0.12,-3.4 1.09,-4.82z" fill="#a57730"/>
   <path id="svg_350" d="m842.14,156.15c0.4,-0.5 1.19,-1.5 1.59,-2c1.56,0.6 3.14,1.19 4.7,1.84c0.05,0.55 0.14,1.64 0.18,2.18c-2.36,0.04 -4.64,-0.49 -6.47,-2.02z" fill="#a57730"/>
   <path id="svg_351" d="m840.34,156.67l0.48,0.09l-0.12,0.55l-0.54,-0.11l0.18,-0.53z" fill="#a57730"/>
   <path id="svg_352" d="m838.72,158.08c0.03,-0.15 0.09,-0.47 0.11,-0.62l0.2,0.33l-0.31,0.29z" fill="#a57730"/>
   <path id="svg_353" d="m838.11,161.02c0.29,0.53 0.88,1.61 1.17,2.14c-0.29,-0.53 -0.88,-1.61 -1.17,-2.14z" fill="#a57730"/>
   <path id="svg_354" d="m839.28,163.16c0.05,0.13 0.15,0.4 0.2,0.53c-0.05,-0.13 -0.15,-0.4 -0.2,-0.53z" fill="#a57730"/>
   <path id="svg_355" d="m837.57,178.62c0.81,-3.48 1.83,-6.92 3.28,-10.19c0.44,0.6 1.3,1.81 1.74,2.42c-0.34,2.66 -0.78,5.3 -1.19,7.95c-1.29,-0.07 -2.57,-0.12 -3.83,-0.18z" fill="#a57730"/>
  </g>
  <g id="#ccb68eff">
   <path id="svg_356" d="m907.07,155.71l0.28,-0.45l0.47,0.39c-0.18,0.01 -0.56,0.04 -0.75,0.06z" fill="#ccb68e"/>
  </g>
  <g id="#d6d6d6d6">
   <path id="svg_357" d="m1026.12,158.27c1.37,-0.27 1.84,0.28 1.42,1.64c-1.43,0.3 -1.9,-0.25 -1.42,-1.64z" opacity="0.84" fill="#d6d6d6"/>
  </g>
  <g id="#094224ff">
   <path id="svg_358" d="m835.66,175.89c1.02,-4.01 2.47,-7.88 3.99,-11.73c0.38,1.42 0.76,2.86 1.2,4.27c-1.45,3.27 -2.47,6.71 -3.28,10.19c-0.63,2.43 -1.27,4.85 -1.88,7.28c-2.53,7.01 -5.47,13.89 -7.71,21c-0.57,5.08 -1.83,10.03 -3.32,14.91c-0.74,-1.36 -1.21,-2.84 -1.46,-4.35c1.6,-3.95 2.34,-8.13 2.98,-12.32c3.37,-9.69 7.57,-19.12 9.48,-29.25z" fill="#094224"/>
  </g>
  <g id="#7e7e7e7f">
   <path id="svg_359" d="m586.89,179.57c0.82,6.09 0.27,12.26 0.53,18.38c0.47,55.04 0.22,110.09 0.24,165.14c-0.46,-3.35 -0.28,-6.73 -0.3,-10.09c0.01,-31.33 -0.02,-62.65 -0.01,-93.97c-0.2,-22.66 -0.76,-45.32 -0.76,-67.99c0.15,-3.82 -0.49,-7.7 0.3,-11.47z" opacity="0.5" fill="#7e7e7e"/>
  </g>
 </g>
</svg>